<?xml version="1.0" encoding="utf-8"?>
<!-- Generator: Adobe Illustrator 15.0.0, SVG Export Plug-In . SVG Version: 6.00 Build 0)  -->
<!DOCTYPE svg PUBLIC "-//W3C//DTD SVG 1.1//EN" "http://www.w3.org/Graphics/SVG/1.1/DTD/svg11.dtd">
<svg version="1.1" id="Layer_1" xmlns="http://www.w3.org/2000/svg" xmlns:xlink="http://www.w3.org/1999/xlink" x="0px" y="0px"
	 width="864px" height="432px" viewBox="0 0 864 432" enable-background="new 0 0 864 432" xml:space="preserve">
<pattern  width="72" height="72" patternUnits="userSpaceOnUse" id="Plaid_1" viewBox="1.601 -73.6 72 72" overflow="visible">
	<g>
		<polygon fill="none" points="1.601,-1.6 1.601,-73.6 73.601,-73.6 73.601,-1.6 		"/>
		<line fill="none" stroke="#000000" stroke-width="0.3" stroke-linecap="square" x1="73.601" y1="-57.6" x2="1.601" y2="-57.6"/>
		<line fill="none" stroke="#000000" stroke-width="0.3" stroke-linecap="square" x1="73.601" y1="-21.6" x2="1.601" y2="-21.6"/>
		<line fill="none" stroke="#000000" stroke-width="0.3" stroke-linecap="square" x1="73.601" y1="-51.6" x2="1.601" y2="-51.6"/>
		<line fill="none" stroke="#000000" stroke-width="0.3" stroke-linecap="square" x1="73.601" y1="-15.6" x2="1.601" y2="-15.6"/>
		<line fill="none" stroke="#000000" stroke-width="0.3" stroke-linecap="square" x1="73.601" y1="-53.6" x2="1.601" y2="-53.6"/>
		<line fill="none" stroke="#000000" stroke-width="0.3" stroke-linecap="square" x1="73.601" y1="-17.6" x2="1.601" y2="-17.6"/>
		<line fill="none" stroke="#000000" stroke-width="0.3" stroke-linecap="square" x1="73.601" y1="-59.6" x2="1.601" y2="-59.6"/>
		<line fill="none" stroke="#000000" stroke-width="0.3" stroke-linecap="square" x1="73.601" y1="-23.6" x2="1.601" y2="-23.6"/>
		<line fill="none" stroke="#000000" stroke-width="0.3" stroke-linecap="square" x1="17.601" y1="-73.6" x2="17.601" y2="-1.6"/>
		<line fill="none" stroke="#000000" stroke-width="0.3" stroke-linecap="square" x1="53.601" y1="-73.6" x2="53.601" y2="-1.6"/>
		<line fill="none" stroke="#000000" stroke-width="0.3" stroke-linecap="square" x1="23.601" y1="-73.6" x2="23.601" y2="-1.6"/>
		<line fill="none" stroke="#000000" stroke-width="0.3" stroke-linecap="square" x1="59.601" y1="-73.6" x2="59.601" y2="-1.6"/>
		<line fill="none" stroke="#000000" stroke-width="0.3" stroke-linecap="square" x1="15.601" y1="-73.6" x2="15.601" y2="-1.6"/>
		<line fill="none" stroke="#000000" stroke-width="0.3" stroke-linecap="square" x1="51.601" y1="-73.6" x2="51.601" y2="-1.6"/>
		<line fill="none" stroke="#000000" stroke-width="0.3" stroke-linecap="square" x1="21.601" y1="-73.6" x2="21.601" y2="-1.6"/>
		<line fill="none" stroke="#000000" stroke-width="0.3" stroke-linecap="square" x1="57.601" y1="-73.6" x2="57.601" y2="-1.6"/>
	</g>
</pattern>
<pattern  width="72" height="72" patternUnits="userSpaceOnUse" id="Plaid_2" viewBox="0.15 -72.15 72 72" overflow="visible">
	<g>
		<polygon fill="none" points="0.15,-0.15 0.15,-72.15 72.15,-72.15 72.15,-0.15 		"/>
		<line fill="none" stroke="#000000" stroke-width="0.3" stroke-linecap="square" x1="72.15" y1="-66.15" x2="0.15" y2="-66.15"/>
		<line fill="none" stroke="#000000" stroke-width="0.3" stroke-linecap="square" x1="72.15" y1="-30.15" x2="0.15" y2="-30.15"/>
		<line fill="none" stroke="#000000" stroke-width="0.3" stroke-linecap="square" x1="72.15" y1="-52.15" x2="0.15" y2="-52.15"/>
		<line fill="none" stroke="#000000" stroke-width="0.3" stroke-linecap="square" x1="72.15" y1="-16.15" x2="0.15" y2="-16.15"/>
		<line fill="none" stroke="#000000" stroke-width="0.3" stroke-linecap="square" x1="72.15" y1="-47.15" x2="0.15" y2="-47.15"/>
		<line fill="none" stroke="#000000" stroke-width="0.3" stroke-linecap="square" x1="72.15" y1="-11.15" x2="0.15" y2="-11.15"/>
		<line fill="none" stroke="#000000" stroke-width="0.3" stroke-linecap="square" x1="72.15" y1="-42.15" x2="0.15" y2="-42.15"/>
		<line fill="none" stroke="#000000" stroke-width="0.3" stroke-linecap="square" x1="72.15" y1="-6.15" x2="0.15" y2="-6.15"/>
		<line fill="none" stroke="#000000" stroke-width="0.3" stroke-linecap="square" x1="72.15" y1="-54.15" x2="0.15" y2="-54.15"/>
		<line fill="none" stroke="#000000" stroke-width="0.3" stroke-linecap="square" x1="72.15" y1="-18.15" x2="0.15" y2="-18.15"/>
		<line fill="none" stroke="#000000" stroke-width="0.3" stroke-linecap="square" x1="72.15" y1="-49.15" x2="0.15" y2="-49.15"/>
		<line fill="none" stroke="#000000" stroke-width="0.3" stroke-linecap="square" x1="72.15" y1="-13.15" x2="0.15" y2="-13.15"/>
		<line fill="none" stroke="#000000" stroke-width="0.3" stroke-linecap="square" x1="72.15" y1="-44.15" x2="0.15" y2="-44.15"/>
		<line fill="none" stroke="#000000" stroke-width="0.3" stroke-linecap="square" x1="72.15" y1="-8.15" x2="0.15" y2="-8.15"/>
		<line fill="none" stroke="#000000" stroke-width="0.3" stroke-linecap="square" x1="20.15" y1="-72.15" x2="20.15" y2="-0.15"/>
		<line fill="none" stroke="#000000" stroke-width="0.3" stroke-linecap="square" x1="56.15" y1="-72.15" x2="56.15" y2="-0.15"/>
		<line fill="none" stroke="#000000" stroke-width="0.3" stroke-linecap="square" x1="25.15" y1="-72.15" x2="25.15" y2="-0.15"/>
		<line fill="none" stroke="#000000" stroke-width="0.3" stroke-linecap="square" x1="61.15" y1="-72.15" x2="61.15" y2="-0.15"/>
		<line fill="none" stroke="#000000" stroke-width="0.3" stroke-linecap="square" x1="30.15" y1="-72.15" x2="30.15" y2="-0.15"/>
		<line fill="none" stroke="#000000" stroke-width="0.3" stroke-linecap="square" x1="66.15" y1="-72.15" x2="66.15" y2="-0.15"/>
		<line fill="none" stroke="#000000" stroke-width="0.3" stroke-linecap="square" x1="18.15" y1="-72.15" x2="18.15" y2="-0.15"/>
		<line fill="none" stroke="#000000" stroke-width="0.3" stroke-linecap="square" x1="54.15" y1="-72.15" x2="54.15" y2="-0.15"/>
		<line fill="none" stroke="#000000" stroke-width="0.3" stroke-linecap="square" x1="23.15" y1="-72.15" x2="23.15" y2="-0.15"/>
		<line fill="none" stroke="#000000" stroke-width="0.3" stroke-linecap="square" x1="59.15" y1="-72.15" x2="59.15" y2="-0.15"/>
		<line fill="none" stroke="#000000" stroke-width="0.3" stroke-linecap="square" x1="28.15" y1="-72.15" x2="28.15" y2="-0.15"/>
		<line fill="none" stroke="#000000" stroke-width="0.3" stroke-linecap="square" x1="64.15" y1="-72.15" x2="64.15" y2="-0.15"/>
		<line fill="none" stroke="#000000" stroke-width="0.3" stroke-linecap="square" x1="42.15" y1="-72.15" x2="42.15" y2="-0.15"/>
		<line fill="none" stroke="#000000" stroke-width="0.3" stroke-linecap="square" x1="6.15" y1="-72.15" x2="6.15" y2="-0.15"/>
	</g>
</pattern>
<path stroke="#000000" stroke-miterlimit="10" d="M175.463,293.91c0,6.627-5.373,12-12,12h-2.866c-6.627,0-12-5.373-12-12V141.045
	c0-6.627,5.373-12,12-12h2.866c6.627,0,12,5.373,12,12V293.91z"/>
<path stroke="#000000" stroke-miterlimit="10" d="M516.463,297.05c0,4.893-5.373,8.86-12,8.86h-2.865c-6.628,0-12-3.968-12-8.86
	V184.174c0-4.894,5.372-8.861,12-8.861h2.865c6.627,0,12,3.967,12,8.861V297.05z"/>
<path stroke="#000000" stroke-miterlimit="10" d="M370.442,159.721c-52.511,0-95.08,16.648-95.08,37.186h190.16
	C465.521,176.369,422.953,159.721,370.442,159.721z"/>
<path fill="url(#Plaid_2)" stroke="#3C3C3B" stroke-miterlimit="10" d="M182.007,152.85c0,0,1.546-13.427,7.477-3.702
	s29.063,10.37,23.021,28.354c0,0,16.46-10.285,34.277,12.921c0,0,8.949,1.529-0.021,5.224
	C237.791,199.342,184.774,207.339,182.007,152.85z"/>
<circle stroke="#000000" stroke-miterlimit="10" cx="259.579" cy="175.314" r="19.002"/>
<path fill="url(#Plaid_1)" stroke="#000000" stroke-miterlimit="10" d="M488.896,212.334c0-6.628-5.373-12-12-12H187.463
	c-6.627,0-12,5.372-12,12v12.627h313.433V212.334z"/>
<path stroke="#000000" stroke-miterlimit="10" d="M175.463,229.045v29.791c0,6.627,5.373,12,12,12h289.433c6.627,0,12-5.373,12-12
	v-29.791H175.463z"/>
</svg>
