<?xml version="1.0" encoding="utf-8"?>
<!-- Generator: Adobe Illustrator 15.0.0, SVG Export Plug-In . SVG Version: 6.00 Build 0)  -->
<!DOCTYPE svg PUBLIC "-//W3C//DTD SVG 1.1//EN" "http://www.w3.org/Graphics/SVG/1.1/DTD/svg11.dtd">
<svg version="1.1" id="Layer_1" xmlns="http://www.w3.org/2000/svg" xmlns:xlink="http://www.w3.org/1999/xlink" x="0px" y="0px"
	 width="864px" height="432px" viewBox="0 0 864 432" style="enable-background:new 0 0 864 432;" xml:space="preserve">
<g>
	<rect style="fill:#00A19A;stroke:#000000;stroke-miterlimit:10;" width="863.756" height="432.744"/>
	<path style="fill:#010202;" d="M62.124,86.063v146.387h52.371V86.063H62.124z M104.932,194.495H71.96
		c-1.588,0-2.866-1.007-2.866-2.241c0-1.242,1.283-2.248,2.866-2.248h32.972c1.587,0,2.867,1.005,2.867,2.248
		C107.803,193.496,106.519,194.495,104.932,194.495z M104.932,181.035H71.96c-1.588,0-2.866-1.007-2.866-2.243
		c0-1.241,1.283-2.248,2.866-2.248h32.972c1.587,0,2.867,1.007,2.867,2.248C107.803,180.035,106.519,181.035,104.932,181.035z
		 M104.932,167.575H71.96c-1.588,0-2.866-1.007-2.866-2.249c0-1.234,1.283-2.242,2.866-2.242h32.972
		c1.587,0,2.867,1.008,2.867,2.242C107.803,166.568,106.519,167.575,104.932,167.575z M104.932,154.113H71.96
		c-1.588,0-2.866-1.004-2.866-2.243c0-1.239,1.283-2.246,2.866-2.246h32.972c1.587,0,2.867,1.007,2.867,2.246
		C107.803,153.109,106.519,154.113,104.932,154.113z M104.932,140.657H71.96c-1.588,0-2.866-1.007-2.866-2.245
		c0-1.243,1.283-2.247,2.866-2.247h32.972c1.587,0,2.867,1.004,2.867,2.247C107.803,139.65,106.519,140.657,104.932,140.657z
		 M104.932,127.192H71.96c-1.588,0-2.866-1.005-2.866-2.244c0-1.236,1.283-2.242,2.866-2.242h32.972
		c1.587,0,2.867,1.005,2.867,2.242C107.803,126.187,106.519,127.192,104.932,127.192z M104.932,113.733H71.96
		c-1.588,0-2.866-1.003-2.866-2.242c0-1.239,1.283-2.244,2.866-2.244h32.972c1.587,0,2.867,1.005,2.867,2.244
		C107.798,112.73,106.519,113.733,104.932,113.733z M104.932,100.272H71.96c-1.588,0-2.866-1.005-2.866-2.244
		c0-1.242,1.283-2.243,2.866-2.243h32.972c1.587,0,2.867,1.005,2.867,2.243C107.803,99.271,106.519,100.272,104.932,100.272z"/>
	<path style="fill:#010202;" d="M199.746,59.896v172.557h9.7v-38.05h13.758v38.046h5.454v-38.046h13.758v38.046h9.704V59.896
		H199.746z M220.911,170.942h-11.465c-1.588,0-2.871-1.007-2.871-2.245c0-1.239,1.282-2.242,2.871-2.242h11.465
		c1.588,0,2.866,1.003,2.866,2.242C223.776,169.935,222.499,170.942,220.911,170.942z M220.911,157.476h-11.465
		c-1.588,0-2.871-1.003-2.871-2.242c0-1.242,1.282-2.245,2.871-2.245h11.465c1.588,0,2.866,1.003,2.866,2.245
		C223.776,156.476,222.499,157.476,220.911,157.476z M220.911,144.02h-11.465c-1.588,0-2.871-1.003-2.871-2.246
		c0-1.242,1.282-2.245,2.871-2.245h11.465c1.588,0,2.866,1.003,2.866,2.245C223.776,143.017,222.499,144.02,220.911,144.02z
		 M220.911,130.557h-11.465c-1.588,0-2.871-1.005-2.871-2.243c0-1.241,1.282-2.243,2.871-2.243h11.465
		c1.588,0,2.866,1.005,2.866,2.243S222.499,130.557,220.911,130.557z M220.911,117.098h-11.465c-1.588,0-2.871-1.003-2.871-2.242
		c0-1.243,1.282-2.243,2.871-2.243h11.465c1.588,0,2.866,1.005,2.866,2.243C223.776,116.095,222.499,117.098,220.911,117.098z
		 M220.911,103.637h-11.465c-1.588,0-2.871-1.005-2.871-2.245c0-1.238,1.282-2.243,2.871-2.243h11.465
		c1.588,0,2.866,1.005,2.866,2.243C223.776,102.635,222.499,103.637,220.911,103.637z M220.911,90.178h-11.465
		c-1.588,0-2.871-1.005-2.871-2.243c0-1.243,1.282-2.243,2.871-2.243h11.465c1.588,0,2.866,1.005,2.866,2.243
		S222.499,90.178,220.911,90.178z M220.911,76.715h-11.465c-1.588,0-2.871-1.007-2.871-2.243c0-1.242,1.282-2.244,2.871-2.244
		h11.465c1.588,0,2.866,1.005,2.866,2.244C223.776,75.713,222.499,76.715,220.911,76.715z M242.415,170.942h-11.471
		c-1.587,0-2.87-1.007-2.87-2.245c0-1.239,1.283-2.242,2.87-2.242h11.471c1.578,0,2.864,1.003,2.864,2.242
		C245.279,169.935,243.993,170.942,242.415,170.942z M242.415,157.476h-11.471c-1.587,0-2.87-1.003-2.87-2.242
		c0-1.242,1.283-2.245,2.87-2.245h11.471c1.578,0,2.864,1.003,2.864,2.245C245.279,156.476,243.993,157.476,242.415,157.476z
		 M242.415,144.02h-11.471c-1.587,0-2.87-1.003-2.87-2.246c0-1.242,1.283-2.245,2.87-2.245h11.471c1.578,0,2.864,1.003,2.864,2.245
		C245.279,143.017,243.993,144.02,242.415,144.02z M242.415,130.557h-11.471c-1.587,0-2.87-1.005-2.87-2.243
		c0-1.241,1.283-2.243,2.87-2.243h11.471c1.578,0,2.864,1.005,2.864,2.243S243.993,130.557,242.415,130.557z M242.415,117.098
		h-11.471c-1.587,0-2.87-1.003-2.87-2.242c0-1.243,1.283-2.243,2.87-2.243h11.471c1.578,0,2.864,1.005,2.864,2.243
		C245.279,116.095,243.993,117.098,242.415,117.098z M242.415,103.637h-11.471c-1.587,0-2.87-1.005-2.87-2.245
		c0-1.238,1.283-2.243,2.87-2.243h11.471c1.578,0,2.864,1.005,2.864,2.243C245.279,102.635,243.993,103.637,242.415,103.637z
		 M242.415,90.178h-11.471c-1.587,0-2.87-1.005-2.87-2.243c0-1.243,1.283-2.243,2.87-2.243h11.471c1.578,0,2.864,1.005,2.864,2.243
		S243.993,90.178,242.415,90.178z M242.415,76.715h-11.471c-1.587,0-2.87-1.007-2.87-2.243c0-1.242,1.283-2.244,2.87-2.244h11.471
		c1.578,0,2.864,1.005,2.864,2.244C245.279,75.713,243.993,76.715,242.415,76.715z"/>
	<path style="fill:#010202;" d="M169.44,114.76c0-3.458-6.736-6.26-15.05-6.26c-8.318,0-15.054,2.802-15.054,6.26v6.263
		c0,0-4.012,0-8.957,0c-4.946,0-8.958,6.567-8.958,14.676v14.675h65.943c0,0,0-6.571,0-14.675c0-8.108-4.011-14.676-8.962-14.676
		h-8.953C169.44,121.023,169.44,118.22,169.44,114.76z M167.289,141.683h-25.801c0,0,0-3.121,0-6.966
		c0-3.846,5.777-6.967,12.902-6.967c7.122,0,12.899,3.117,12.899,6.967V141.683z"/>
	<path style="fill:#010202;" d="M121.421,156.359v76.09h6.449v-50.293c0-4.951,5.139-8.972,11.465-8.972
		c6.337,0,11.475,4.013,11.475,8.972v50.293h7.164v-50.293c0-4.951,5.129-8.972,11.466-8.972c6.332,0,11.47,4.013,11.47,8.972
		v50.293h6.454v-76.09H121.421z"/>
	<path style="fill:#010202;" d="M26.188,160.655c-14.463,0-26.185,10.049-26.185,22.439v49.355h52.375v-49.355
		C52.375,170.704,40.653,160.655,26.188,160.655z M16.411,223.472H7.449v-11.497h8.962V223.472z M16.411,205.903H7.449v-11.5h8.962
		V205.903z M16.411,188.327H7.449V176.83h8.962V188.327z M30.667,223.472h-8.955v-11.497h8.959v11.497H30.667z M30.667,205.903
		h-8.955v-11.5h8.959v11.5H30.667z M30.667,188.327h-8.955V176.83h8.959v11.497H30.667z M44.923,223.472h-8.96v-11.497h8.96V223.472
		z M44.923,205.903h-8.96v-11.5h8.96V205.903z M44.923,188.327h-8.96V176.83h8.96V188.327z"/>
	<g>
		<path style="fill:#010202;" d="M674.25,88.069v146.387h52.371V88.069H674.25z M717.059,196.501h-32.973
			c-1.588,0-2.865-1.007-2.865-2.242c0-1.242,1.281-2.247,2.865-2.247h32.973c1.587,0,2.866,1.005,2.866,2.247
			C719.929,195.502,718.646,196.501,717.059,196.501z M717.059,183.042h-32.973c-1.588,0-2.865-1.007-2.865-2.242
			c0-1.242,1.281-2.25,2.865-2.25h32.973c1.587,0,2.866,1.007,2.866,2.25C719.929,182.042,718.646,183.042,717.059,183.042z
			 M717.059,169.582h-32.973c-1.588,0-2.865-1.007-2.865-2.25c0-1.234,1.281-2.242,2.865-2.242h32.973
			c1.587,0,2.866,1.008,2.866,2.242C719.929,168.575,718.646,169.582,717.059,169.582z M717.059,156.119h-32.973
			c-1.588,0-2.865-1.003-2.865-2.242c0-1.238,1.281-2.246,2.865-2.246h32.973c1.587,0,2.866,1.007,2.866,2.246
			C719.929,155.116,718.646,156.119,717.059,156.119z M717.059,142.664h-32.973c-1.588,0-2.865-1.006-2.865-2.245
			c0-1.243,1.281-2.247,2.865-2.247h32.973c1.587,0,2.866,1.004,2.866,2.247C719.929,141.657,718.646,142.664,717.059,142.664z
			 M717.059,129.199h-32.973c-1.588,0-2.865-1.005-2.865-2.244c0-1.237,1.281-2.242,2.865-2.242h32.973
			c1.587,0,2.866,1.005,2.866,2.242C719.929,128.193,718.646,129.199,717.059,129.199z M717.059,115.74h-32.973
			c-1.588,0-2.865-1.003-2.865-2.243c0-1.238,1.281-2.243,2.865-2.243h32.973c1.587,0,2.866,1.005,2.866,2.243
			C719.925,114.737,718.646,115.74,717.059,115.74z M717.059,102.279h-32.973c-1.588,0-2.865-1.006-2.865-2.244
			c0-1.242,1.281-2.244,2.865-2.244h32.973c1.587,0,2.866,1.005,2.866,2.244C719.929,101.277,718.646,102.279,717.059,102.279z"/>
		<path style="fill:#010202;" d="M811.873,61.903V234.46h9.697v-38.05h13.759v38.046h5.455V196.41h13.757v38.046h9.704V61.903
			H811.873z M833.038,172.949H821.57c-1.587,0-2.869-1.007-2.869-2.246s1.282-2.242,2.869-2.242h11.468
			c1.587,0,2.865,1.003,2.865,2.242S834.625,172.949,833.038,172.949z M833.038,159.481H821.57c-1.587,0-2.869-1.003-2.869-2.242
			c0-1.242,1.282-2.246,2.869-2.246h11.468c1.587,0,2.865,1.003,2.865,2.246C835.903,158.482,834.625,159.481,833.038,159.481z
			 M833.038,146.026H821.57c-1.587,0-2.869-1.003-2.869-2.246c0-1.242,1.282-2.246,2.869-2.246h11.468
			c1.587,0,2.865,1.003,2.865,2.246C835.903,145.023,834.625,146.026,833.038,146.026z M833.038,132.564H821.57
			c-1.587,0-2.869-1.005-2.869-2.244c0-1.24,1.282-2.242,2.869-2.242h11.468c1.587,0,2.865,1.005,2.865,2.242
			C835.903,131.559,834.625,132.564,833.038,132.564z M833.038,119.104H821.57c-1.587,0-2.869-1.003-2.869-2.242
			c0-1.243,1.282-2.244,2.869-2.244h11.468c1.587,0,2.865,1.005,2.865,2.244C835.903,118.101,834.625,119.104,833.038,119.104z
			 M833.038,105.644H821.57c-1.587,0-2.869-1.004-2.869-2.245c0-1.238,1.282-2.244,2.869-2.244h11.468
			c1.587,0,2.865,1.005,2.865,2.244C835.903,104.642,834.625,105.644,833.038,105.644z M833.038,92.184H821.57
			c-1.587,0-2.869-1.005-2.869-2.244c0-1.242,1.282-2.243,2.869-2.243h11.468c1.587,0,2.865,1.005,2.865,2.243
			C835.903,91.179,834.625,92.184,833.038,92.184z M833.038,78.722H821.57c-1.587,0-2.869-1.007-2.869-2.243
			c0-1.242,1.282-2.243,2.869-2.243h11.468c1.587,0,2.865,1.005,2.865,2.243C835.903,77.72,834.625,78.722,833.038,78.722z
			 M854.541,172.949H843.07c-1.587,0-2.87-1.007-2.87-2.246s1.283-2.242,2.87-2.242h11.471c1.579,0,2.864,1.003,2.864,2.242
			S856.12,172.949,854.541,172.949z M854.541,159.481H843.07c-1.587,0-2.87-1.003-2.87-2.242c0-1.242,1.283-2.246,2.87-2.246h11.471
			c1.579,0,2.864,1.003,2.864,2.246C857.405,158.482,856.12,159.481,854.541,159.481z M854.541,146.026H843.07
			c-1.587,0-2.87-1.003-2.87-2.246c0-1.242,1.283-2.246,2.87-2.246h11.471c1.579,0,2.864,1.003,2.864,2.246
			C857.405,145.023,856.12,146.026,854.541,146.026z M854.541,132.564H843.07c-1.587,0-2.87-1.005-2.87-2.244
			c0-1.24,1.283-2.242,2.87-2.242h11.471c1.579,0,2.864,1.005,2.864,2.242C857.405,131.559,856.12,132.564,854.541,132.564z
			 M854.541,119.104H843.07c-1.587,0-2.87-1.003-2.87-2.242c0-1.243,1.283-2.244,2.87-2.244h11.471c1.579,0,2.864,1.005,2.864,2.244
			C857.405,118.101,856.12,119.104,854.541,119.104z M854.541,105.644H843.07c-1.587,0-2.87-1.004-2.87-2.245
			c0-1.238,1.283-2.244,2.87-2.244h11.471c1.579,0,2.864,1.005,2.864,2.244C857.405,104.642,856.12,105.644,854.541,105.644z
			 M854.541,92.184H843.07c-1.587,0-2.87-1.005-2.87-2.244c0-1.242,1.283-2.243,2.87-2.243h11.471c1.579,0,2.864,1.005,2.864,2.243
			C857.405,91.179,856.12,92.184,854.541,92.184z M854.541,78.722H843.07c-1.587,0-2.87-1.007-2.87-2.243
			c0-1.242,1.283-2.243,2.87-2.243h11.471c1.579,0,2.864,1.005,2.864,2.243C857.405,77.72,856.12,78.722,854.541,78.722z"/>
		<path style="fill:#010202;" d="M733.547,158.364v76.092h6.449v-50.293c0-4.95,5.14-8.971,11.464-8.971
			c6.337,0,11.476,4.013,11.476,8.971v50.293h7.164v-50.293c0-4.95,5.131-8.971,11.467-8.971c6.332,0,11.47,4.013,11.47,8.971
			v50.293h6.453v-76.092H733.547z"/>
		<path style="fill:#010202;" d="M638.314,162.662c-14.463,0-26.185,10.05-26.185,22.437v49.357h52.376v-49.357
			C664.501,172.712,652.778,162.662,638.314,162.662z M628.536,225.478h-8.962v-11.496h8.962V225.478z M628.536,207.91h-8.962v-11.5
			h8.962V207.91z M628.536,190.335h-8.962v-11.498h8.962V190.335z M642.793,225.478h-8.955v-11.496h8.96v11.496H642.793z
			 M642.793,207.91h-8.955v-11.5h8.96v11.5H642.793z M642.793,190.335h-8.955v-11.498h8.96v11.498H642.793z M657.05,225.478h-8.961
			v-11.496h8.961V225.478z M657.05,207.91h-8.961v-11.5h8.961V207.91z M657.05,190.335h-8.961v-11.498h8.961V190.335z"/>
	</g>
	<path style="fill:#010202;" d="M323.487,126.112v109.743h52.372V126.112H323.487z M366.295,207.402h-32.972
		c-1.588,0-2.866-0.756-2.866-1.681c0-0.931,1.283-1.686,2.866-1.686h32.972c1.587,0,2.868,0.755,2.868,1.686
		C369.167,206.652,367.882,207.402,366.295,207.402z M366.295,197.311h-32.972c-1.588,0-2.866-0.754-2.866-1.679
		c0-0.933,1.283-1.687,2.866-1.687h32.972c1.587,0,2.868,0.754,2.868,1.687C369.167,196.562,367.882,197.311,366.295,197.311z
		 M366.295,187.221h-32.972c-1.588,0-2.866-0.754-2.866-1.687c0-0.925,1.283-1.68,2.866-1.68h32.972c1.587,0,2.868,0.755,2.868,1.68
		C369.167,186.466,367.882,187.221,366.295,187.221z M366.295,177.128h-32.972c-1.588,0-2.866-0.753-2.866-1.682
		s1.283-1.683,2.866-1.683h32.972c1.587,0,2.868,0.754,2.868,1.683C369.167,176.375,367.882,177.128,366.295,177.128z
		 M366.295,167.041h-32.972c-1.588,0-2.866-0.756-2.866-1.684c0-0.932,1.283-1.685,2.866-1.685h32.972
		c1.587,0,2.868,0.753,2.868,1.685C369.167,166.285,367.882,167.041,366.295,167.041z M366.295,156.946h-32.972
		c-1.588,0-2.866-0.753-2.866-1.682c0-0.926,1.283-1.681,2.866-1.681h32.972c1.587,0,2.868,0.755,2.868,1.681
		C369.167,156.192,367.882,156.946,366.295,156.946z M366.295,146.856h-32.972c-1.588,0-2.866-0.752-2.866-1.681
		c0-0.928,1.283-1.682,2.866-1.682h32.972c1.587,0,2.868,0.754,2.868,1.682C369.163,146.104,367.882,146.856,366.295,146.856z
		 M366.295,136.766h-32.972c-1.588,0-2.866-0.755-2.866-1.683c0-0.931,1.283-1.682,2.866-1.682h32.972
		c1.587,0,2.868,0.753,2.868,1.682C369.167,136.014,367.882,136.766,366.295,136.766z"/>
	<path style="fill:#010202;" d="M260.832,89.468v146.388h52.372V89.468H260.832z M303.641,197.9h-32.972
		c-1.588,0-2.866-1.007-2.866-2.242c0-1.242,1.282-2.248,2.866-2.248h32.972c1.587,0,2.868,1.005,2.868,2.248
		C306.512,196.901,305.228,197.9,303.641,197.9z M303.641,184.441h-32.972c-1.588,0-2.866-1.007-2.866-2.242
		c0-1.243,1.282-2.25,2.866-2.25h32.972c1.587,0,2.868,1.007,2.868,2.25C306.512,183.441,305.228,184.441,303.641,184.441z
		 M303.641,170.981h-32.972c-1.588,0-2.866-1.007-2.866-2.25c0-1.234,1.282-2.241,2.866-2.241h32.972
		c1.587,0,2.868,1.007,2.868,2.241C306.512,169.974,305.228,170.981,303.641,170.981z M303.641,157.519h-32.972
		c-1.588,0-2.866-1.004-2.866-2.242c0-1.239,1.282-2.246,2.866-2.246h32.972c1.587,0,2.868,1.007,2.868,2.246
		C306.512,156.515,305.228,157.519,303.641,157.519z M303.641,144.063h-32.972c-1.588,0-2.866-1.007-2.866-2.246
		c0-1.242,1.282-2.247,2.866-2.247h32.972c1.587,0,2.868,1.005,2.868,2.247C306.512,143.056,305.228,144.063,303.641,144.063z
		 M303.641,130.598h-32.972c-1.588,0-2.866-1.005-2.866-2.244c0-1.236,1.282-2.242,2.866-2.242h32.972
		c1.587,0,2.868,1.005,2.868,2.242C306.512,129.592,305.228,130.598,303.641,130.598z M303.641,117.139h-32.972
		c-1.588,0-2.866-1.003-2.866-2.243c0-1.238,1.282-2.244,2.866-2.244h32.972c1.587,0,2.868,1.005,2.868,2.244
		C306.508,116.136,305.228,117.139,303.641,117.139z M303.641,103.677h-32.972c-1.588,0-2.866-1.005-2.866-2.243
		c0-1.242,1.282-2.244,2.866-2.244h32.972c1.587,0,2.868,1.005,2.868,2.244C306.512,102.676,305.228,103.677,303.641,103.677z"/>
	<g>
		<path style="fill:#010202;" d="M537.228,116.757c0-5.95-4.694-11.261-12.002-14.725V87.02c0-2.036-0.578-3.998-1.614-5.816v-5.995
			c0-3.156-1.652-6.082-4.461-8.508v-2.073c0-3.754-3.123-7.071-7.906-9.133v-2.96c0-3.24-3.492-6.008-8.383-7.075l-2.091-8.641
			c-0.42-1.795-1.528-3.354-2.772-4.125V16.453c0-0.556-0.758-1.007-1.707-1.007c-0.941,0-1.716,0.451-1.716,1.007v16.35
			c-1.176,0.807-2.22,2.295-2.647,4.011l-2.168,8.635c-1.762,0.381-3.35,0.978-4.664,1.739c-2.323,1.372-3.765,3.254-3.765,5.347
			v2.96c-4.787,2.062-7.901,5.379-7.901,9.133v2.073c-2.816,2.426-4.465,5.352-4.465,8.508v5.995
			c-1.036,1.818-1.615,3.78-1.615,5.816c0,6.337,0,11.891,0,15.007c-7.316,3.469-12.002,8.774-12.002,14.729v35.141h-6.6v83.658
			h95.084v-83.658h-6.599v-35.141H537.228z M527.828,119.268h6.076v6.695h-6.076V119.268z M527.828,131.092h6.076v6.695h-6.076
			V131.092z M527.828,142.909h6.076v6.699h-6.076V142.909z M458.738,119.268h6.076v6.695h-6.076V119.268z M458.738,131.092h6.076
			v6.695h-6.076V131.092z M458.738,142.909h6.076v6.699h-6.076V142.909z M459.185,220.587h-6.077v-6.697h6.077V220.587z
			 M459.185,209.065h-6.077v-6.697h6.077V209.065z M459.185,197.544h-6.077v-6.693h6.077V197.544z M459.185,186.027h-6.077v-6.7
			h6.077V186.027z M459.185,174.509h-6.077v-6.688h6.077V174.509z M459.185,162.999h-6.077v-6.7h6.077V162.999z M467.715,220.587
			h-6.061v-6.697h6.061V220.587z M467.715,209.065h-6.061v-6.697h6.061V209.065z M467.715,197.544h-6.061v-6.693h6.061V197.544z
			 M467.715,186.027h-6.061v-6.7h6.061V186.027z M467.715,174.509h-6.061v-6.688h6.061V174.509z M467.715,162.999h-6.061v-6.7h6.061
			V162.999z M483.094,220.587h-6.066v-6.697h6.066V220.587z M483.094,209.065h-6.066v-6.697h6.066V209.065z M483.094,197.544h-6.066
			v-6.693h6.066V197.544z M483.094,186.027h-6.066v-6.7h6.066V186.027z M483.094,174.509h-6.066v-6.688h6.066V174.509z
			 M483.094,162.999h-6.066v-6.7h6.066V162.999z M483.094,150.863h-6.066v-6.691h6.066V150.863z M483.094,138.737h-6.066v-6.692
			h6.066V138.737z M483.094,126.608h-6.066v-3.349c0-1.844,1.357-3.348,3.037-3.348h3.036v6.697H483.094z M491.634,220.587h-6.068
			v-6.697h6.068V220.587z M491.634,209.065h-6.068v-6.697h6.068V209.065z M491.634,197.544h-6.068v-6.693h6.068V197.544z
			 M491.634,186.027h-6.068v-6.7h6.068V186.027z M491.634,174.509h-6.068v-6.688h6.068V174.509z M491.634,162.999h-6.068v-6.7h6.068
			V162.999z M491.634,150.863h-6.068v-6.691h6.068V150.863z M491.634,138.737h-6.068v-6.692h6.068V138.737z M491.634,126.608h-6.068
			v-6.697h6.068V126.608z M507.011,220.587h-6.07v-6.697h6.07V220.587z M507.011,209.065h-6.07v-6.697h6.07V209.065z
			 M507.011,197.544h-6.07v-6.693h6.07V197.544z M507.011,186.027h-6.07v-6.7h6.07V186.027z M507.011,174.509h-6.07v-6.688h6.07
			V174.509z M507.011,162.999h-6.07v-6.7h6.07V162.999z M507.011,150.863h-6.07v-6.691h6.07V150.863z M507.011,138.737h-6.07v-6.692
			h6.07V138.737z M507.011,126.608h-6.07v-6.697h6.07V126.608z M515.543,220.587h-6.057v-6.697h6.057V220.587z M515.543,209.065
			h-6.057v-6.697h6.057V209.065z M515.543,197.544h-6.057v-6.693h6.057V197.544z M515.543,186.027h-6.057v-6.7h6.057V186.027z
			 M515.543,174.509h-6.057v-6.688h6.057V174.509z M515.543,162.999h-6.057v-6.7h6.057V162.999z M515.543,150.863h-6.057v-6.691
			h6.057V150.863z M515.543,138.737h-6.057v-6.692h6.057V138.737z M515.543,126.608h-6.057v-6.697c0,0,1.357,0,3.028,0
			c1.679,0,3.034,1.501,3.034,3.348v3.349H515.543z M524.528,151.897h-6.221V123.67c0-7.39-9.865-13.383-22.029-13.383
			c-12.16,0-22.019,5.993-22.019,13.383v28.227h-5.9V124.06c0-9.374,12.593-17.001,28.082-17.001
			c15.471,0,28.074,7.627,28.074,17.001v27.838H524.528z M530.914,220.587h-6.057v-6.697h6.057V220.587z M530.914,209.065h-6.057
			v-6.697h6.057V209.065z M530.914,197.544h-6.057v-6.693h6.057V197.544z M530.914,186.027h-6.057v-6.7h6.057V186.027z
			 M530.914,174.509h-6.057v-6.688h6.057V174.509z M530.914,162.999h-6.057v-6.7h6.057V162.999z M539.472,220.587h-6.083v-6.697
			h6.083V220.587z M539.472,209.065h-6.083v-6.697h6.083V209.065z M539.472,197.544h-6.083v-6.693h6.083V197.544z M539.472,186.027
			h-6.083v-6.7h6.083V186.027z M539.472,174.509h-6.083v-6.688h6.083V174.509z M539.472,156.299v6.7h-6.083v-6.7H539.472z"/>
		<path style="fill:#010202;" d="M409.797,60.355h-2.744c-14.552,0-26.345,11.719-26.345,26.179v149.014h55.429V86.535
			C436.143,72.074,424.349,60.355,409.797,60.355z M396.628,228.2h-10.296V89.125c0-3.62,2.302-6.541,5.149-6.541h5.147V228.2z
			 M413.568,228.2h-10.293V82.58h10.293V228.2z M430.507,89.125V228.2h-10.29V82.58c0,0,2.295,0,5.146,0
			C428.209,82.58,430.507,85.505,430.507,89.125z"/>
		<path style="fill:#010202;" d="M554.679,111.962v123.593h55.428V111.962H554.679z M569.582,203.683h-10.694v-8.723h10.694V203.683
			z M569.651,188.248h-10.699v-8.728h10.699V188.248z M569.714,172.813h-10.7v-8.729h10.7V172.813z M569.783,157.378h-10.706v-8.727
			h10.706V157.378z M569.846,141.941h-10.707v-8.726h10.707V141.941z M569.91,126.504h-10.702v-8.725h10.702V126.504z
			 M587.429,203.683h-10.695v-8.723h10.695V203.683z M587.491,188.248h-10.708v-8.728h10.708V188.248z M587.556,172.813h-10.703
			v-8.729h10.703V172.813z M587.616,157.378h-10.7v-8.727h10.7V157.378z M587.688,141.941h-10.703v-8.726h10.703V141.941z
			 M587.755,126.504h-10.706v-8.725h10.706V126.504z M605.394,203.683h-10.7v-8.723h10.7V203.683z M605.449,188.248h-10.694v-8.728
			h10.694V188.248z M605.525,172.813h-10.7v-8.729h10.7V172.813z M605.589,157.378h-10.701v-8.727h10.701V157.378z M605.651,141.941
			h-10.694v-8.726h10.694V141.941z M605.713,126.504H595.02v-8.725h10.693V126.504z"/>
	</g>
	<g>
		<path style="fill:#FFFFFF;stroke:#FFFFFF;stroke-miterlimit:10;" d="M77.634,408.92l1.657-22.568l3.002-70.225l0.414-19.958
			l0.104-14.549l20.722,0.094l23.743-0.094c9.857,0,17.043,1.166,21.555,3.498c4.512,2.331,8.071,5.658,10.675,9.979
			c2.603,4.322,3.905,9.279,3.905,14.875c0,6.964-1.961,13.352-5.881,19.165c-3.921,5.813-9.283,10.243-16.083,13.289
			c-6.802,3.047-14.609,4.569-23.422,4.569c-1.111,0-2.776-0.061-4.997-0.187l49.811,62.111c-1.728-0.062-3.523-0.093-5.387-0.093
			c-1.934,0-3.729,0.031-5.387,0.093l-13.637-18.466l-39.661-50.267c6.187,0.995,11.54,1.492,16.06,1.492
			c5.491,0,10.81-0.669,15.957-2.008c5.145-1.339,9.559-3.348,13.245-6.025c3.684-2.679,6.534-6.025,8.551-10.043
			c2.017-4.017,3.025-8.392,3.025-13.126c0-3.176-0.488-6.134-1.46-8.875c-0.973-2.739-2.538-5.152-4.691-7.239
			c-2.155-2.086-4.362-3.565-6.622-4.437c-2.259-0.872-5.161-1.512-8.707-1.917c-3.546-0.404-7.298-0.607-11.26-0.607l-17.1,0.094
			c-3.754,0-8.549-0.062-14.388-0.187c-2.287,49.218-3.604,89.754-3.949,121.61c-1.737-0.062-3.369-0.093-4.896-0.093
			C81,408.827,79.369,408.858,77.634,408.92z"/>
		<path style="fill:#FFFFFF;stroke:#FFFFFF;stroke-miterlimit:10;" d="M185.688,408.92c1.321-16.848,2.52-38.594,3.598-65.235
			c1.077-26.64,1.617-47.329,1.617-62.064c15.403,0.063,29.872,0.094,43.404,0.094l37.991-0.094
			c-0.278,2.488-0.417,4.695-0.417,6.622l-8.328-0.622c-2.152-0.207-5.899-0.325-11.243-0.357
			c-5.345-0.03-10.584-0.047-15.719-0.047c-16.448,0-28.939,0.032-37.475,0.094l-2.104,53.531
			c10.481,0.187,20.098,0.279,28.845,0.279c10.413,0,23.254-0.093,38.527-0.279c-0.278,1.865-0.452,3.916-0.521,6.154l-39.276-0.279
			c-4.585,0-13.892,0.093-27.921,0.279l-2.093,56.05l29.86,0.093c11.721,0,19.854-0.047,24.398-0.14
			c4.543-0.094,10.733-0.326,18.572-0.699c-0.348,2.487-0.521,4.694-0.521,6.621c-16.656-0.062-28.835-0.093-36.539-0.093
			L185.688,408.92z"/>
		<path style="fill:#FFFFFF;stroke:#FFFFFF;stroke-miterlimit:10;" d="M338.967,408.92l-34.699-91.674l-8.856-23.035
			c-1.112-2.859-2.884-7.056-5.314-12.591c1.742,0.063,3.45,0.094,5.122,0.094c1.74,0,3.482-0.03,5.226-0.094l5.412,16.704
			l38.602,103.395l5.21-8.76l36.887-65.975c-3.762-10.351-7.001-18.955-9.717-25.815l-7.731-19.549
			c1.812,0.063,3.242,0.094,4.288,0.094c1.184,0,2.65-0.03,4.394-0.094c3.951,12.568,8.354,25.012,13.208,37.33l18.137-37.33
			c1.724,0.063,3.348,0.094,4.867,0.094c1.518,0,3.105-0.03,4.762-0.094l-13.09,23.872c-3.601,6.626-7.342,13.777-11.22,21.455
			l1.562,4.772l23.539,62.035l3.541,8.515l6.345-11.29c1.248-2.302,3.606-6.812,7.074-13.53l44.417-85.005
			c1.386-2.736,3.155-6.345,5.306-10.824c1.73,0.063,3.29,0.094,4.676,0.094c1.385,0,2.977-0.03,4.779-0.094
			c-3.885,6.658-11.581,20.813-23.094,42.464l-26.733,50.118c-6.312,11.76-12.275,23.363-17.892,34.811
			c-1.735-0.063-3.541-0.093-5.415-0.093c-1.875,0-3.681,0-5.415,0l-11.555-31.538l-15.824-41.896l-2.707,4.666
			c-0.765,1.182-2.429,4.168-4.995,8.958l-33.204,59.81c-1.736-0.062-3.401-0.093-4.999-0.093S340.632,408.858,338.967,408.92z"/>
		<path style="fill:#FFFFFF;stroke:#FFFFFF;stroke-miterlimit:10;" d="M507.351,408.92l2.287-37.397l2.078-56.049l0.417-19.397
			c0.068-5.16,0.104-9.979,0.104-14.456c1.806,0.063,3.367,0.094,4.688,0.094c1.39,0,2.951-0.03,4.688-0.094l-1.921,33.761
			l-2.455,69.479l-0.511,24.061c-1.737-0.062-3.299-0.093-4.688-0.093S509.086,408.858,507.351,408.92z"/>
		<path style="fill:#FFFFFF;stroke:#FFFFFF;stroke-miterlimit:10;" d="M541.807,408.92c0.276-3.109,0.417-5.97,0.417-8.583
			l93.423-113.027l-6.554-0.187l-34.226,0.093c-10.126,0-18.205,0.085-24.238,0.252c-6.034,0.17-12.691,0.458-19.974,0.867
			c0.208-1.865,0.313-3.761,0.313-5.688v-1.026c11.867,0.063,28.07,0.094,48.613,0.094l28.627-0.094h15.198
			c-0.278,2.708-0.416,5.506-0.416,8.396l-85.689,103.789c-1.597,1.929-4.096,5.071-7.496,9.427
			c13.396,0.063,28.979,0.093,46.75,0.093c9.925,0,17.474-0.047,22.646-0.14c5.171-0.094,11.192-0.357,18.064-0.793
			c-0.208,1.865-0.313,3.7-0.313,5.503v1.025c-12.283-0.062-27.239-0.093-44.866-0.093
			C567.796,408.827,551.036,408.858,541.807,408.92z"/>
		<path style="fill:#FFFFFF;stroke:#FFFFFF;stroke-miterlimit:10;" d="M665.684,408.92c1.32-16.848,2.52-38.594,3.598-65.235
			c1.077-26.64,1.617-47.329,1.617-62.064c15.403,0.063,29.871,0.094,43.403,0.094l37.991-0.094
			c-0.278,2.488-0.416,4.695-0.416,6.622l-8.328-0.622c-2.152-0.207-5.899-0.325-11.242-0.357c-5.346-0.03-10.584-0.047-15.72-0.047
			c-16.447,0-28.938,0.032-37.475,0.094l-2.104,53.531c10.481,0.187,20.098,0.279,28.845,0.279c10.413,0,23.255-0.093,38.528-0.279
			c-0.278,1.865-0.452,3.916-0.521,6.154l-39.276-0.279c-4.585,0-13.892,0.093-27.921,0.279l-2.093,56.05l29.859,0.093
			c11.721,0,19.854-0.047,24.398-0.14c4.542-0.094,10.733-0.326,18.571-0.699c-0.348,2.487-0.521,4.694-0.521,6.621
			c-16.655-0.062-28.835-0.093-36.538-0.093L665.684,408.92z"/>
	</g>
</g>
</svg>
