<?xml version="1.0" encoding="utf-8"?>
<!-- Generator: Adobe Illustrator 15.0.0, SVG Export Plug-In . SVG Version: 6.00 Build 0)  -->
<!DOCTYPE svg PUBLIC "-//W3C//DTD SVG 1.1//EN" "http://www.w3.org/Graphics/SVG/1.1/DTD/svg11.dtd">
<svg version="1.1" id="Layer_1" xmlns="http://www.w3.org/2000/svg" xmlns:xlink="http://www.w3.org/1999/xlink" x="0px" y="0px"
	 width="864px" height="432px" viewBox="0 0 864 432" style="enable-background:new 0 0 864 432;" xml:space="preserve">
<rect style="fill:#FAF08A;stroke:#000000;stroke-width:2;stroke-miterlimit:10;" width="865" height="431.935"/>
<path style="fill:#010202;" d="M197.995,52.372v182.153h19.767v-40.167h28.058v40.163h11.104v-40.163h28.053v40.163h19.783V52.372
	H197.995z M241.145,169.595h-23.382c-3.223,0-5.841-1.063-5.841-2.372s2.618-2.363,5.841-2.363h23.382
	c3.254,0,5.837,1.055,5.837,2.363S244.398,169.595,241.145,169.595z M241.145,155.376h-23.382c-3.223,0-5.841-1.057-5.841-2.368
	c0-1.308,2.618-2.366,5.841-2.366h23.382c3.254,0,5.837,1.058,5.837,2.366C246.981,154.322,244.398,155.376,241.145,155.376z
	 M241.145,141.177h-23.382c-3.223,0-5.841-1.061-5.841-2.372c0-1.314,2.618-2.372,5.841-2.372h23.382
	c3.254,0,5.837,1.058,5.837,2.372C246.981,140.116,244.398,141.177,241.145,141.177z M241.145,126.961h-23.382
	c-3.223,0-5.841-1.058-5.841-2.366c0-1.309,2.618-2.366,5.841-2.366h23.382c3.254,0,5.837,1.061,5.837,2.366
	C246.981,125.904,244.398,126.961,241.145,126.961z M241.145,112.755h-23.382c-3.223,0-5.841-1.061-5.841-2.366
	c0-1.314,2.618-2.369,5.841-2.369h23.382c3.254,0,5.837,1.061,5.837,2.369C246.981,111.695,244.398,112.755,241.145,112.755z
	 M241.145,98.549h-23.382c-3.223,0-5.841-1.061-5.841-2.375c0-1.305,2.618-2.369,5.841-2.369h23.382
	c3.254,0,5.837,1.063,5.837,2.369C246.981,97.489,244.398,98.549,241.145,98.549z M241.145,84.337h-23.382
	c-3.223,0-5.841-1.058-5.841-2.369c0-1.308,2.618-2.366,5.841-2.366h23.382c3.254,0,5.837,1.061,5.837,2.366
	C246.981,83.28,244.398,84.337,241.145,84.337z M241.145,70.128h-23.382c-3.223,0-5.841-1.064-5.841-2.366
	c0-1.314,2.618-2.368,5.841-2.368h23.382c3.254,0,5.837,1.057,5.837,2.368C246.981,69.067,244.398,70.128,241.145,70.128z
	 M284.977,169.595h-23.382c-3.238,0-5.841-1.063-5.841-2.372s2.603-2.363,5.841-2.363h23.382c3.223,0,5.853,1.055,5.853,2.363
	S288.2,169.595,284.977,169.595z M284.977,155.376h-23.382c-3.238,0-5.841-1.057-5.841-2.368c0-1.308,2.603-2.366,5.841-2.366
	h23.382c3.223,0,5.853,1.058,5.853,2.366C290.83,154.322,288.2,155.376,284.977,155.376z M284.977,141.177h-23.382
	c-3.238,0-5.841-1.061-5.841-2.372c0-1.314,2.603-2.372,5.841-2.372h23.382c3.223,0,5.853,1.058,5.853,2.372
	C290.83,140.116,288.2,141.177,284.977,141.177z M284.977,126.961h-23.382c-3.238,0-5.841-1.058-5.841-2.366
	c0-1.309,2.603-2.366,5.841-2.366h23.382c3.223,0,5.853,1.061,5.853,2.366C290.83,125.904,288.2,126.961,284.977,126.961z
	 M284.977,112.755h-23.382c-3.238,0-5.841-1.061-5.841-2.366c0-1.314,2.603-2.369,5.841-2.369h23.382
	c3.223,0,5.853,1.061,5.853,2.369C290.83,111.695,288.2,112.755,284.977,112.755z M284.977,98.549h-23.382
	c-3.238,0-5.841-1.061-5.841-2.375c0-1.305,2.603-2.369,5.841-2.369h23.382c3.223,0,5.853,1.063,5.853,2.369
	C290.83,97.489,288.2,98.549,284.977,98.549z M284.977,84.337h-23.382c-3.238,0-5.841-1.058-5.841-2.369
	c0-1.308,2.603-2.366,5.841-2.366h23.382c3.223,0,5.853,1.061,5.853,2.366C290.83,83.28,288.2,84.337,284.977,84.337z
	 M284.977,70.128h-23.382c-3.238,0-5.841-1.064-5.841-2.366c0-1.314,2.603-2.368,5.841-2.368h23.382
	c3.223,0,5.853,1.057,5.853,2.368C290.83,69.067,288.2,70.128,284.977,70.128z"/>
<g>
	<path style="fill:#010202;" d="M163.371,94.742c0-4.052-8.121-7.332-18.138-7.332c-10.021,0-18.143,3.28-18.143,7.332v7.332
		c0,0-4.82,0-10.778,0c-5.967,0-10.791,7.69-10.791,17.184v17.182h79.426c0,0,0-7.69,0-17.182c0-9.494-4.82-17.184-10.791-17.184
		h-10.778C163.371,102.074,163.371,98.794,163.371,94.742z M160.768,126.263h-31.072c0,0,0-3.655,0-8.157s6.956-8.157,15.536-8.157
		c8.577,0,15.536,3.648,15.536,8.157V126.263z"/>
	<path style="fill:#010202;" d="M105.521,143.45v89.09h7.768v-58.887c0-5.795,6.194-10.503,13.801-10.503
		c7.643,0,13.833,4.699,13.833,10.503v58.887h8.627v-58.887c0-5.795,6.178-10.503,13.821-10.503c7.615,0,13.809,4.699,13.809,10.503
		v58.887h7.768v-89.09H105.521z"/>
</g>
<path style="fill:#010202;" d="M605.571,52.372v182.153h77.889V52.372H605.571z M669.243,187.293h-49.046
	c-2.366,0-4.267-1.251-4.267-2.791c0-1.54,1.907-2.794,4.267-2.794h49.046c2.358,0,4.246,1.255,4.246,2.794
	C673.509,186.049,671.602,187.293,669.243,187.293z M669.243,170.547h-49.046c-2.366,0-4.267-1.254-4.267-2.788
	c0-1.546,1.907-2.803,4.267-2.803h49.046c2.358,0,4.246,1.257,4.246,2.803C673.509,169.303,671.602,170.547,669.243,170.547z
	 M669.243,153.798h-49.046c-2.366,0-4.267-1.251-4.267-2.801c0-1.534,1.907-2.788,4.267-2.788h49.046
	c2.358,0,4.246,1.254,4.246,2.788C673.509,152.547,671.602,153.798,669.243,153.798z M669.243,137.045h-49.046
	c-2.366,0-4.267-1.248-4.267-2.791c0-1.54,1.907-2.788,4.267-2.788h49.046c2.358,0,4.246,1.248,4.246,2.788
	C673.509,135.798,671.602,137.045,669.243,137.045z M669.243,120.299h-49.046c-2.366,0-4.267-1.248-4.267-2.788
	c0-1.546,1.907-2.797,4.267-2.797h49.046c2.358,0,4.246,1.251,4.246,2.797C673.509,119.052,671.602,120.299,669.243,120.299z
	 M669.243,103.547h-49.046c-2.366,0-4.267-1.248-4.267-2.788c0-1.543,1.907-2.791,4.267-2.791h49.046
	c2.358,0,4.246,1.248,4.246,2.791C673.509,102.299,671.602,103.547,669.243,103.547z M669.243,86.804h-49.046
	c-2.366,0-4.267-1.251-4.267-2.791c0-1.54,1.907-2.794,4.267-2.794h49.046c2.358,0,4.246,1.254,4.246,2.794
	C673.489,85.553,671.602,86.804,669.243,86.804z M669.243,70.052h-49.046c-2.366,0-4.267-1.251-4.267-2.791
	c0-1.55,1.907-2.797,4.267-2.797h49.046c2.358,0,4.246,1.257,4.246,2.797C673.509,68.807,671.602,70.052,669.243,70.052z"/>
<path style="fill:#010202;" d="M786.021,42.281v192.862h14.634v-42.522h20.744v42.522h8.228v-42.522h20.753v42.522H865V42.281
	H786.021z M817.941,166.395h-17.287c-2.396,0-4.338-1.125-4.338-2.512c0-1.381,1.942-2.501,4.338-2.501h17.287
	c2.394,0,4.321,1.121,4.321,2.501C822.263,165.27,820.335,166.395,817.941,166.395z M817.941,151.344h-17.287
	c-2.396,0-4.338-1.121-4.338-2.505c0-1.387,1.942-2.512,4.338-2.512h17.287c2.394,0,4.321,1.125,4.321,2.512
	C822.263,150.226,820.335,151.344,817.941,151.344z M817.941,136.306h-17.287c-2.396,0-4.338-1.121-4.338-2.512
	c0-1.387,1.942-2.508,4.338-2.508h17.287c2.394,0,4.321,1.121,4.321,2.508C822.263,135.185,820.335,136.306,817.941,136.306z
	 M817.941,121.255h-17.287c-2.396,0-4.338-1.121-4.338-2.505c0-1.387,1.942-2.505,4.338-2.505h17.287
	c2.394,0,4.321,1.121,4.321,2.505C822.263,120.135,820.335,121.255,817.941,121.255z M817.941,106.217h-17.287
	c-2.396,0-4.338-1.121-4.338-2.508c0-1.387,1.942-2.508,4.338-2.508h17.287c2.394,0,4.321,1.127,4.321,2.508
	C822.263,105.097,820.335,106.217,817.941,106.217z M817.941,91.17h-17.287c-2.396,0-4.338-1.121-4.338-2.508
	c0-1.385,1.942-2.508,4.338-2.508h17.287c2.394,0,4.321,1.124,4.321,2.508C822.263,90.049,820.335,91.17,817.941,91.17z
	 M817.941,76.126h-17.287c-2.396,0-4.338-1.125-4.338-2.505c0-1.391,1.942-2.508,4.338-2.508h17.287
	c2.394,0,4.321,1.124,4.321,2.508C822.263,75.001,820.335,76.126,817.941,76.126z M817.941,61.079h-17.287
	c-2.396,0-4.338-1.124-4.338-2.505c0-1.391,1.942-2.508,4.338-2.508h17.287c2.394,0,4.321,1.124,4.321,2.508
	C822.263,59.96,820.335,61.079,817.941,61.079z M850.379,166.395h-17.318c-2.375,0-4.313-1.125-4.313-2.512
	c0-1.381,1.938-2.501,4.313-2.501h17.318c2.37,0,4.31,1.121,4.31,2.501C854.688,165.27,852.749,166.395,850.379,166.395z
	 M850.379,151.344h-17.318c-2.375,0-4.313-1.121-4.313-2.505c0-1.387,1.938-2.512,4.313-2.512h17.318c2.37,0,4.31,1.125,4.31,2.512
	C854.688,150.226,852.749,151.344,850.379,151.344z M850.379,136.306h-17.318c-2.375,0-4.313-1.121-4.313-2.512
	c0-1.387,1.938-2.508,4.313-2.508h17.318c2.37,0,4.31,1.121,4.31,2.508C854.688,135.185,852.749,136.306,850.379,136.306z
	 M850.379,121.255h-17.318c-2.375,0-4.313-1.121-4.313-2.505c0-1.387,1.938-2.505,4.313-2.505h17.318c2.37,0,4.31,1.121,4.31,2.505
	C854.688,120.135,852.749,121.255,850.379,121.255z M850.379,106.217h-17.318c-2.375,0-4.313-1.121-4.313-2.508
	c0-1.387,1.938-2.508,4.313-2.508h17.318c2.37,0,4.31,1.127,4.31,2.508C854.688,105.097,852.749,106.217,850.379,106.217z
	 M850.379,91.17h-17.318c-2.375,0-4.313-1.121-4.313-2.508c0-1.385,1.938-2.508,4.313-2.508h17.318c2.37,0,4.31,1.124,4.31,2.508
	C854.688,90.049,852.749,91.17,850.379,91.17z M850.379,76.126h-17.318c-2.375,0-4.313-1.125-4.313-2.505
	c0-1.391,1.938-2.508,4.313-2.508h17.318c2.37,0,4.31,1.124,4.31,2.508C854.688,75.001,852.749,76.126,850.379,76.126z
	 M850.379,61.079h-17.318c-2.375,0-4.313-1.124-4.313-2.505c0-1.391,1.938-2.508,4.313-2.508h17.318c2.37,0,4.31,1.124,4.31,2.508
	C854.688,59.96,852.749,61.079,850.379,61.079z"/>
<path style="fill:#010202;" d="M698.435,144.066v91.078h7.038v-60.202c0-5.922,5.604-10.732,12.501-10.732
	c6.912,0,12.514,4.801,12.514,10.732v60.202h7.818v-60.202c0-5.922,5.598-10.732,12.506-10.732c6.904,0,12.51,4.801,12.51,10.732
	v60.202h7.046v-91.078H698.435z"/>
<g>
	<path style="fill:#010202;" d="M499.297,111.856c0-6.147-5.39-11.631-13.777-15.209V81.146c0-2.099-0.659-4.128-1.849-6.004V68.95
		c0-3.258-1.896-6.278-5.126-8.783v-2.14c0-3.877-3.577-7.303-9.072-9.431v-3.058c0-3.347-4.003-6.205-9.616-7.306l-2.402-8.923
		c-0.479-1.851-1.742-3.46-3.175-4.261V8.281c0-0.575-0.872-1.042-1.955-1.042s-1.971,0.467-1.971,1.042v16.879
		c-1.354,0.834-2.556,2.372-3.046,4.144l-2.484,8.919c-2.021,0.394-3.844,1.007-5.35,1.794c-2.666,1.416-4.321,3.359-4.321,5.521
		v3.058c-5.492,2.127-9.072,5.554-9.072,9.431v2.14c-3.227,2.505-5.118,5.524-5.118,8.783v6.191
		c-1.185,1.876-1.848,3.906-1.848,6.004c0,6.547,0,12.278,0,15.498c-8.404,3.582-13.775,9.059-13.775,15.212v36.283h-7.571v86.386
		h109.105V148.14h-7.572v-36.283H499.297z M488.511,114.445h6.975v6.918h-6.975V114.445z M488.511,126.656h6.975v6.913h-6.975
		V126.656z M488.511,138.855h6.975v6.919h-6.975V138.855z M409.226,114.445h6.975v6.918h-6.975V114.445z M409.226,126.656h6.975
		v6.913h-6.975V126.656z M409.226,138.855h6.975v6.919h-6.975V138.855z M409.744,219.071h-6.976v-6.919h6.976V219.071z
		 M409.744,207.173h-6.976v-6.916h6.976V207.173z M409.744,195.272h-6.976v-6.909h6.976V195.272z M409.744,183.378h-6.976v-6.916
		h6.976V183.378z M409.744,171.487h-6.976v-6.903h6.976V171.487z M409.744,159.603h-6.976v-6.919h6.976V159.603z M419.529,219.071
		h-6.955v-6.919h6.955V219.071z M419.529,207.173h-6.955v-6.916h6.955V207.173z M419.529,195.272h-6.955v-6.909h6.955V195.272z
		 M419.529,183.378h-6.955v-6.916h6.955V183.378z M419.529,171.487h-6.955v-6.903h6.955V171.487z M419.529,159.603h-6.955v-6.919
		h6.955V159.603z M437.18,219.071h-6.966v-6.919h6.966V219.071z M437.18,207.173h-6.966v-6.916h6.966V207.173z M437.18,195.272
		h-6.966v-6.909h6.966V195.272z M437.18,183.378h-6.966v-6.916h6.966V183.378z M437.18,171.487h-6.966v-6.903h6.966V171.487z
		 M437.18,159.603h-6.966v-6.919h6.966V159.603z M437.18,147.073h-6.966v-6.909h6.966V147.073z M437.18,134.55h-6.966v-6.909h6.966
		V134.55z M437.18,122.03h-6.966v-3.461c0-1.906,1.566-3.458,3.489-3.458h3.477V122.03L437.18,122.03z M446.982,219.071h-6.972
		v-6.919h6.972V219.071z M446.982,207.173h-6.972v-6.916h6.972V207.173z M446.982,195.272h-6.972v-6.909h6.972V195.272z
		 M446.982,183.378h-6.972v-6.916h6.972V183.378z M446.982,171.487h-6.972v-6.903h6.972V171.487z M446.982,159.603h-6.972v-6.919
		h6.972V159.603z M446.982,147.073h-6.972v-6.909h6.972V147.073z M446.982,134.55h-6.972v-6.909h6.972V134.55z M446.982,122.03
		h-6.972v-6.919h6.972V122.03z M464.625,219.071h-6.966v-6.919h6.966V219.071z M464.625,207.173h-6.966v-6.916h6.966V207.173z
		 M464.625,195.272h-6.966v-6.909h6.966V195.272z M464.625,183.378h-6.966v-6.916h6.966V183.378z M464.625,171.487h-6.966v-6.903
		h6.966V171.487z M464.625,159.603h-6.966v-6.919h6.966V159.603z M464.625,147.073h-6.966v-6.909h6.966V147.073z M464.625,134.55
		h-6.966v-6.909h6.966V134.55z M464.625,122.03h-6.966v-6.919h6.966V122.03z M474.415,219.071h-6.951v-6.919h6.951V219.071z
		 M474.415,207.173h-6.951v-6.916h6.951V207.173z M474.415,195.272h-6.951v-6.909h6.951V195.272z M474.415,183.378h-6.951v-6.916
		h6.951V183.378z M474.415,171.487h-6.951v-6.903h6.951V171.487z M474.415,159.603h-6.951v-6.919h6.951V159.603z M474.415,147.073
		h-6.951v-6.909h6.951V147.073z M474.415,134.55h-6.951v-6.909h6.951V134.55z M474.415,122.03h-6.951v-6.919c0,0,1.546,0,3.481,0
		c1.907,0,3.47,1.549,3.47,3.458V122.03L474.415,122.03z M484.723,148.14h-7.14v-29.146c0-7.633-11.316-13.821-25.274-13.821
		c-13.955,0-25.274,6.188-25.274,13.821v29.146h-6.775v-28.742c0-9.681,14.453-17.56,32.234-17.56
		c17.758,0,32.218,7.878,32.218,17.56v28.742H484.723z M492.047,219.071h-6.951v-6.919h6.951V219.071z M492.047,207.173h-6.951
		v-6.916h6.951V207.173z M492.047,195.272h-6.951v-6.909h6.951V195.272z M492.047,183.378h-6.951v-6.916h6.951V183.378z
		 M492.047,171.487h-6.951v-6.903h6.951V171.487z M492.047,159.603h-6.951v-6.919h6.951V159.603z M501.864,219.071h-6.976v-6.919
		h6.976V219.071z M501.864,207.173h-6.976v-6.916h6.976V207.173z M501.864,195.272h-6.976v-6.909h6.976V195.272z M501.864,183.378
		h-6.976v-6.916h6.976V183.378z M501.864,171.487h-6.976v-6.903h6.976V171.487z M501.864,152.684v6.919h-6.976v-6.919H501.864z"/>
	<path style="fill:#010202;" d="M353.072,53.613h-3.145c-16.702,0-30.231,12.101-30.231,27.038v153.868h63.596V80.651
		C383.303,65.714,369.77,53.613,353.072,53.613z M337.96,226.93h-11.811V83.321c0-3.737,2.637-6.753,5.911-6.753h5.9V226.93z
		 M357.405,226.93h-11.819V76.564h11.819V226.93z M376.839,83.321V226.93h-11.808V76.564c0,0,2.634,0,5.9,0
		C374.201,76.564,376.839,79.584,376.839,83.321z"/>
	<path style="fill:#010202;" d="M519.32,106.907v127.619h63.603V106.907H519.32z M536.414,201.614h-12.259v-9.008h12.259V201.614z
		 M536.504,185.677h-12.282v-9.014h12.282V185.677z M536.57,169.738h-12.273v-9.014h12.273V169.738z M536.646,153.798h-12.274
		v-9.011h12.274V153.798z M536.717,137.859h-12.275v-9.012h12.275V137.859z M536.79,121.916h-12.277v-9.005h12.277V121.916z
		 M556.892,201.614h-12.267v-9.008h12.267V201.614z M556.975,185.677h-12.291v-9.014h12.291V185.677z M557.041,169.738h-12.275
		v-9.014h12.275V169.738z M557.119,153.798h-12.29v-9.011h12.29V153.798z M557.202,137.859h-12.29v-9.012h12.29V137.859z
		 M557.28,121.916h-12.302v-9.005h12.302V121.916z M577.506,201.614h-12.277v-9.008h12.277V201.614z M577.581,185.677h-12.282
		v-9.014h12.282V185.677z M577.655,169.738h-12.273v-9.014h12.273V169.738z M577.734,153.798h-12.278v-9.011h12.278V153.798z
		 M577.805,137.859h-12.266v-9.012h12.266V137.859z M577.875,121.916h-12.266v-9.005h12.266V121.916z"/>
</g>
<g>
	<path style="fill:#00A19A;stroke:#000000;stroke-width:2;stroke-miterlimit:10;" d="M192.266,398.692
		c3.374,0.168,5.061,0.896,5.061,2.184c0,1.512-1.054,3.022-3.163,4.534s-4.323,2.268-6.642,2.268c-2.741,0-5.36-0.672-7.854-2.016
		c-2.496-1.344-3.743-2.911-3.743-4.702c0-2.575,1.545-5.053,4.639-7.432c3.092-2.379,6.36-3.568,9.805-3.568
		c5.551,0,10.208,1.147,13.969,3.442c3.759,2.295,5.641,5.094,5.641,8.397c0,3.862-2.567,7.515-7.696,10.958
		c-5.131,3.442-11.281,5.164-18.45,5.164c-6.748,0-12.177-1.61-16.289-4.828c-4.111-3.22-6.167-7.377-6.167-12.47
		c0-2.855,0.615-7.402,1.845-13.646c1.229-6.241,1.845-12.608,1.845-19.103c0-17.185-12.722-25.778-38.165-25.778l-0.422-2.52
		c23.124-4.646,34.686-14.862,34.686-30.648c0-6.325-3.479-11.489-10.438-15.492c-6.958-4.002-14.691-6.004-23.194-6.004
		c-2.952,0-6.396,0.168-10.332,0.504c-1.758,15.228-2.636,37.982-2.636,68.267c0,2.911,0.211,12.96,0.633,30.146
		c6.044,0,13.179-1.035,21.402-3.107v4.618c-7.943,1.4-15.851,2.1-23.722,2.1c-3.655,0-10.859,0.561-21.613,1.68v-4.787
		l18.767-0.335c-5.132-43.328-8.365-75.712-9.7-97.152l-15.604,2.015v-3.946c21.508-2.52,37.497-3.778,47.97-3.778
		c13.002,0,23.809,2.435,32.419,7.305c8.609,4.87,12.915,10.105,12.915,15.702c0,5.542-3.321,11.336-9.963,17.382
		s-15.903,10.973-27.781,14.778c12.721,1.289,22.228,3.64,28.519,7.054c6.29,3.415,9.436,8.873,9.436,16.374
		c0,4.144-1.968,10.412-5.904,18.81c-3.938,8.396-5.904,15.142-5.904,20.236c0,4.142,1.651,7.501,4.955,10.076
		c3.303,2.574,7.836,3.862,13.601,3.862c4.919,0,9.031-1.218,12.335-3.652c3.303-2.436,4.956-5.193,4.956-8.271
		c0-7.221-3.901-10.832-11.703-10.832c-1.618,0-3.146,0.617-4.586,1.848c-1.441,1.23-2.161,2.631-2.161,4.198
		c0,1.791,0.509,3.275,1.529,4.451c1.018,1.175,2.196,1.763,3.532,1.763C191.281,404.738,192.406,402.724,192.266,398.692z"/>
	<path style="fill:#00A19A;stroke:#000000;stroke-width:2;stroke-miterlimit:10;" d="M296.852,372.578
		c3.163,0.672,4.745,1.708,4.745,3.107c0,2.071-0.704,3.877-2.109,5.416c-1.407,1.54-3.233,2.309-5.482,2.309
		c-2.461,0-4.517-0.867-6.168-2.603c-1.652-1.734-2.478-3.639-2.478-5.71c0-3.191,1.845-6.27,5.535-9.237
		c3.69-2.966,6.906-4.45,9.647-4.45c6.115,0,10.946,1.022,14.496,3.065c3.548,2.044,5.324,5.024,5.324,8.942
		c0,3.19-1.318,6.648-3.954,10.37c-2.636,3.724-5.658,6.704-9.067,8.942c-3.41,2.238-6.8,3.624-10.174,4.157
		c-3.374,0.531-8.154,0.797-14.338,0.797c-2.741,0-8.927-0.49-18.556-1.469c-9.63-0.98-17.361-1.47-23.194-1.47
		c-4.148,0-9.981,0.559-17.501,1.68v-4.45l12.124-0.672c-2.25-23.512-4.622-41.929-7.116-55.252
		c-2.496-13.322-6.309-27.765-11.439-43.328l-11.281,0.756v-4.366c24.107-0.615,45.651-2.436,64.628-5.458l23.721-3.779
		c-2.461,10.525-3.41,19.762-2.846,27.71h-5.166l0.632-18.977l-49.13,2.603c2.249,25.808,3.374,43.469,3.374,52.984
		c20.593-0.727,36.864-2.741,48.814-6.045v6.717c-14.691,2.296-30.962,3.611-48.814,3.947c0.28,5.71,0.422,13.071,0.422,22.083
		c0,6.606-0.071,13.297-0.211,20.069l41.012,1.008c12.651,0,20.717-1.147,24.196-3.443c3.479-2.295,5.219-5.737,5.219-10.328
		c0-7.893-5.026-11.84-15.076-11.84c-1.476,0-3.005,0.714-4.586,2.142s-2.372,3.121-2.372,5.08c0,1.399,0.738,2.519,2.214,3.358
		s2.811,1.26,4.006,1.26c1.476,0,2.214-0.615,2.214-1.848c0-1.175-0.738-2.099-2.214-2.771L296.852,372.578z"/>
	<path style="fill:#00A19A;stroke:#000000;stroke-width:2;stroke-miterlimit:10;" d="M483.355,295.494
		c4.568,0,6.854,1.625,6.854,4.871c0,2.071-1.688,4.101-5.061,6.087c-3.374,1.988-7.064,2.981-11.07,2.981
		c-2.813,0-5.255-0.966-7.327-2.897c-2.074-1.931-3.11-3.988-3.11-6.171c0-4.311,2.459-8.397,7.38-12.26
		c4.919-3.862,10.016-5.794,15.287-5.794c5.411,0,9.787,1.498,13.126,4.492c3.338,2.995,5.008,7.152,5.008,12.47
		c0,5.15-1.003,10.679-3.008,16.584c-2.007,5.906-6.879,14.106-14.618,24.603c-7.741,10.496-14.619,21.889-20.635,34.176
		c-6.017,12.288-9.235,21.286-9.656,26.996l-4.323,0.168l-9.594-17.046c-6.046-10.636-11.247-21.286-15.604-31.95
		c-4.359-10.664-8.049-20.698-11.07-30.104c-13.073,20.657-23.23,45.176-30.469,73.558l-7.591,2.099
		c-3.377-16.401-9.78-35.504-19.21-57.309c-9.429-21.803-18.577-38.471-27.443-50.004c-3.233,0.561-9.138,1.932-17.712,4.115
		l-1.265-3.443c14.9-4.421,34.544-8.256,58.935-11.504l1.687,4.115c-4.359,0.28-11.633,1.315-21.824,3.106
		c9.785,20.041,20.101,52.957,30.943,98.748l10.543-29.474c1.616-4.366,4.99-12.344,10.121-23.931
		c5.13-11.588,10.051-21.188,14.76-28.802l13.811,4.45c1.266,22.84,9.031,50.689,23.3,83.55
		c4.715-22.392,13.862-41.593,27.444-57.604c6.825-8.004,11.382-14.064,13.668-18.179c2.287-4.115,3.432-9.166,3.432-15.157
		c0-3.47-1.986-6.577-5.957-9.32c-3.972-2.742-7.68-4.114-11.122-4.114c-7.17,0-10.754,3.163-10.754,9.488
		c0,1.736,0.772,3.485,2.319,5.248c1.545,1.764,3.303,2.646,5.271,2.646c3.864,0,5.799-1.428,5.799-4.282
		C484.621,299.078,484.199,297.342,483.355,295.494z"/>
	<path style="fill:#00A19A;stroke:#000000;stroke-width:2;stroke-miterlimit:10;" d="M568.859,390.8l-0.422,4.618
		c-7.521-0.559-15.498-0.84-23.933-0.84c-3.655,0-10.859,0.559-21.613,1.68v-4.786l18.767-0.336
		c-4.991-28.772-7.627-63.397-7.907-103.87l-15.604,0.336l0.211-3.946c12.932,0.112,21.824-0.112,26.674-0.672
		s10.859-1.65,18.028-3.275l1.055,4.283l-14.022,2.267c-2.602,26.255-3.901,49.095-3.901,68.519c0,11.869,0.386,23.932,1.16,36.191
		C553.325,390.968,560.494,390.912,568.859,390.8z"/>
	<path style="fill:#00A19A;stroke:#000000;stroke-width:2;stroke-miterlimit:10;" d="M667.751,364.854
		c2.6,0,3.901,1.372,3.901,4.114c0,1.288-1.107,2.435-3.321,3.442s-4.412,1.512-6.59,1.512c-2.741,0-5.219-1.077-7.433-3.232
		s-3.321-3.821-3.321-4.997c0-3.581,1.898-6.856,5.693-9.824c3.796-2.966,7.555-4.45,11.281-4.45c3.514,0,7.133,1.372,10.859,4.114
		c3.725,2.744,5.588,6.466,5.588,11.168c0,6.327-3.656,12.498-10.965,18.516c-7.312,6.018-16.447,9.026-27.412,9.026
		c-3.094,0-9.999-0.462-20.717-1.386c-10.719-0.923-19.171-1.385-25.355-1.385c-10.754,0-18.028,0.812-21.824,2.435l-1.265-2.099
		c24.6-22.783,41.961-41.257,52.082-55.42c10.121-14.162,20.031-30.761,29.73-49.794c-16.166,6.046-36.093,9.068-59.778,9.068
		c-1.054,7.782-2.284,14.332-3.689,19.649l-6.221-0.504c3.303-9.517,4.955-16.513,4.955-20.992c0-3.862-0.563-9.265-1.687-16.206
		c0.351-0.056,1.933-0.224,4.744-0.504l1.897,9.656c4.709,0.113,9.137,0.168,13.284,0.168c14.761,0,27.254-0.798,37.48-2.393
		c10.227-1.596,16.429-3.485,18.608-5.668c0.983,1.175,3.408,2.995,7.274,5.458c-6.186,10.524-13.249,21.51-21.191,32.957
		c-7.943,11.449-15.376,20.657-22.298,27.626c-6.924,6.97-15.78,15.438-26.568,25.401c-10.79,9.965-16.853,15.702-18.187,17.213
		c3.374-1.343,8.504-2.504,15.393-3.484c6.888-0.979,12.757-1.47,17.606-1.47c2.952,0,8.996,0.771,18.134,2.31
		c9.137,1.54,16.764,2.309,22.878,2.309c4.218,0,8.013-1.805,11.387-5.416c3.374-3.61,5.061-7.374,5.061-11.293
		c0-2.742-1.37-5.57-4.111-8.481c-2.741-2.91-5.624-4.366-8.646-4.366c-3.444,0-6.115,0.672-8.013,2.016
		c-1.897,1.343-2.847,2.716-2.847,4.114c0,4.03,2.811,6.046,8.435,6.046c0.983,0,2.091-0.56,3.321-1.68
		C667.135,367.009,667.751,365.917,667.751,364.854z"/>
	<path style="fill:#00A19A;stroke:#000000;stroke-width:2;stroke-miterlimit:10;" d="M782.669,372.578
		c3.163,0.672,4.744,1.708,4.744,3.107c0,2.071-0.703,3.877-2.108,5.416c-1.406,1.54-3.233,2.309-5.482,2.309
		c-2.461,0-4.517-0.867-6.167-2.603c-1.652-1.734-2.478-3.639-2.478-5.71c0-3.191,1.845-6.27,5.535-9.237
		c3.689-2.966,6.905-4.45,9.646-4.45c6.114,0,10.946,1.022,14.496,3.065c3.549,2.044,5.324,5.024,5.324,8.942
		c0,3.19-1.317,6.648-3.953,10.37c-2.636,3.724-5.659,6.704-9.067,8.942c-3.41,2.238-6.8,3.624-10.174,4.157
		c-3.374,0.531-8.154,0.797-14.338,0.797c-2.741,0-8.928-0.49-18.556-1.469c-9.631-0.98-17.361-1.47-23.194-1.47
		c-4.148,0-9.981,0.559-17.502,1.68v-4.45l12.125-0.672c-2.251-23.512-4.623-41.929-7.117-55.252
		c-2.495-13.322-6.309-27.765-11.438-43.328l-11.281,0.756v-4.366c24.107-0.615,45.651-2.436,64.628-5.458l23.722-3.779
		c-2.461,10.525-3.41,19.762-2.847,27.71h-5.166l0.633-18.977l-49.13,2.603c2.249,25.808,3.374,43.469,3.374,52.984
		c20.593-0.727,36.863-2.741,48.813-6.045v6.717c-14.691,2.296-30.962,3.611-48.813,3.947c0.279,5.71,0.421,13.071,0.421,22.083
		c0,6.606-0.07,13.297-0.21,20.069l41.012,1.008c12.651,0,20.717-1.147,24.196-3.443c3.479-2.295,5.219-5.737,5.219-10.328
		c0-7.893-5.026-11.84-15.077-11.84c-1.476,0-3.005,0.714-4.586,2.142s-2.372,3.121-2.372,5.08c0,1.399,0.738,2.519,2.214,3.358
		c1.477,0.84,2.811,1.26,4.007,1.26c1.476,0,2.214-0.615,2.214-1.848c0-1.175-0.738-2.099-2.214-2.771L782.669,372.578z"/>
</g>
<path style="fill:#010202;" d="M0,31.444v201.09h17.125v-44.339h24.278v44.339h9.628v-44.339h24.286v44.339h17.109V31.444H0z
	 M37.356,160.85h-20.23c-2.802,0-5.075-1.171-5.075-2.616c0-1.441,2.273-2.61,5.075-2.61h20.23c2.803,0,5.056,1.168,5.056,2.61
	C42.412,159.679,40.159,160.85,37.356,160.85z M37.356,145.159h-20.23c-2.802,0-5.075-1.169-5.075-2.613
	c0-1.445,2.273-2.617,5.075-2.617h20.23c2.803,0,5.056,1.171,5.056,2.617C42.412,143.996,40.159,145.159,37.356,145.159z
	 M37.356,129.482h-20.23c-2.802,0-5.075-1.171-5.075-2.623c0-1.444,2.273-2.613,5.075-2.613h20.23c2.803,0,5.056,1.169,5.056,2.613
	C42.412,128.311,40.159,129.482,37.356,129.482z M37.356,113.788h-20.23c-2.802,0-5.075-1.169-5.075-2.613
	c0-1.445,2.273-2.613,5.075-2.613h20.23c2.803,0,5.056,1.171,5.056,2.613C42.412,112.619,40.159,113.788,37.356,113.788z
	 M37.356,98.108h-20.23c-2.802,0-5.075-1.168-5.075-2.613c0-1.451,2.273-2.62,5.075-2.62h20.23c2.803,0,5.056,1.175,5.056,2.62
	S40.159,98.108,37.356,98.108z M37.356,82.419h-20.23c-2.802,0-5.075-1.169-5.075-2.613c0-1.448,2.273-2.62,5.075-2.62h20.23
	c2.803,0,5.056,1.171,5.056,2.62C42.412,81.25,40.159,82.419,37.356,82.419z M37.356,66.733h-20.23
	c-2.802,0-5.075-1.171-5.075-2.613c0-1.451,2.273-2.613,5.075-2.613h20.23c2.803,0,5.056,1.172,5.056,2.613
	C42.412,65.562,40.159,66.733,37.356,66.733z M37.356,51.044h-20.23c-2.802,0-5.075-1.171-5.075-2.613
	c0-1.451,2.273-2.613,5.075-2.613h20.23c2.803,0,5.056,1.171,5.056,2.613C42.412,49.876,40.159,51.044,37.356,51.044z
	 M75.317,160.85H55.051c-2.783,0-5.052-1.171-5.052-2.616c0-1.441,2.269-2.61,5.052-2.61h20.266c2.771,0,5.04,1.168,5.04,2.61
	C80.356,159.679,78.087,160.85,75.317,160.85z M75.317,145.159H55.051c-2.783,0-5.052-1.169-5.052-2.613
	c0-1.445,2.269-2.617,5.052-2.617h20.266c2.771,0,5.04,1.171,5.04,2.617C80.356,143.996,78.087,145.159,75.317,145.159z
	 M75.317,129.482H55.051c-2.783,0-5.052-1.171-5.052-2.623c0-1.444,2.269-2.613,5.052-2.613h20.266c2.771,0,5.04,1.169,5.04,2.613
	C80.356,128.311,78.087,129.482,75.317,129.482z M75.317,113.788H55.051c-2.783,0-5.052-1.169-5.052-2.613
	c0-1.445,2.269-2.613,5.052-2.613h20.266c2.771,0,5.04,1.171,5.04,2.613C80.356,112.619,78.087,113.788,75.317,113.788z
	 M75.317,98.108H55.051c-2.783,0-5.052-1.168-5.052-2.613c0-1.451,2.269-2.62,5.052-2.62h20.266c2.771,0,5.04,1.175,5.04,2.62
	S78.087,98.108,75.317,98.108z M75.317,82.419H55.051c-2.783,0-5.052-1.169-5.052-2.613c0-1.448,2.269-2.62,5.052-2.62h20.266
	c2.771,0,5.04,1.171,5.04,2.62C80.356,81.25,78.087,82.419,75.317,82.419z M75.317,66.733H55.051c-2.783,0-5.052-1.171-5.052-2.613
	c0-1.451,2.269-2.613,5.052-2.613h20.266c2.771,0,5.04,1.172,5.04,2.613C80.356,65.562,78.087,66.733,75.317,66.733z M75.317,51.044
	H55.051c-2.783,0-5.052-1.171-5.052-2.613c0-1.451,2.269-2.613,5.052-2.613h20.266c2.771,0,5.04,1.171,5.04,2.613
	C80.356,49.876,78.087,51.044,75.317,51.044z"/>
</svg>
