<?xml version="1.0" encoding="utf-8"?>
<!-- Generator: Adobe Illustrator 15.0.0, SVG Export Plug-In . SVG Version: 6.00 Build 0)  -->
<!DOCTYPE svg PUBLIC "-//W3C//DTD SVG 1.1//EN" "http://www.w3.org/Graphics/SVG/1.1/DTD/svg11.dtd">
<svg version="1.1" id="Layer_1" xmlns="http://www.w3.org/2000/svg" xmlns:xlink="http://www.w3.org/1999/xlink" x="0px" y="0px"
	 width="864px" height="432px" viewBox="0 0 864 432" enable-background="new 0 0 864 432" xml:space="preserve">
<path fill="#FCEA10" d="M853.569,645.067"/>
<path fill="#FCEA10" d="M283.599,377"/>
<text transform="matrix(0.671 0 0 1 406.061 382.3896)" fill="#683C11" font-family="'Castellar'" font-size="184.6752">ehat</text>
<g>
	<g>
		<path fill="#683C11" d="M340.594,382.055c-21.684,9.638-15.661-191.544-46.045-250.574c-30.385-59.03-9.37,4.818-9.37,4.818
			c42.165,174.678,0,245.755,0,245.755"/>
		<path fill="#F9B233" d="M278.1,221.832c15.832,11.514-66.583-60.127,0-109.626c0,0-38.699,48.188,16.717,109.626"/>
		<path fill="#EA5B0C" d="M269.894,112.206c0,0-81.089,63.849,32.209,148.694l-15.285,16.793
			C286.818,277.693,178.713,172.44,269.894,112.206z"/>
		<path fill="#95C11F" d="M332.523,373.449c0,0,104.796-114.885-15.246-129.035c0,0,84.69,13.783,9.43,97.967"/>
		<path fill="#3AAA35" d="M317.278,244.414c0,0,177.515-32.752,41.387,137.976h-12.58
			C346.084,382.39,466.231,230.857,317.278,244.414z"/>
		<g>
			<polyline fill="#FCEA10" points="241.147,237.656 200.221,289.831 175.896,283.534 			"/>
		</g>
		<g>
			<polyline fill="#FCEA10" points="221.332,214.42 138.523,253.081 117.284,239.676 			"/>
		</g>
		<path fill="#FCEA10" d="M214.104,196.533"/>
		<g>
			<polyline fill="#FCEA10" points="219.296,157.108 145.76,121.809 143.401,99.297 			"/>
		</g>
		<g>
			<polyline fill="#FCEA10" points="218.203,181.866 127.168,189.899 111.789,170.042 			"/>
		</g>
		<path fill="#FFFFFF" d="M304.455,382.39c0,0,10.328-82.36,4.893-92.559c0,0,2.684,89.281,7.931,92.559"/>
	</g>
	<g>
		<polyline fill="#FCEA10" points="240.283,112.206 196.123,65.605 196.558,49.611 		"/>
	</g>
</g>
<path fill="#683C11" d="M302.103,151.257c0,0,8.356-13.164,15.175-32.663s-1.708,22.028-11.036,49.041"/>
</svg>
