<?xml version="1.0" encoding="UTF-8" standalone="no"?>
<!-- Created with Inkscape (http://www.inkscape.org/) -->

<svg
   xmlns:dc="http://purl.org/dc/elements/1.1/"
   xmlns:cc="http://creativecommons.org/ns#"
   xmlns:rdf="http://www.w3.org/1999/02/22-rdf-syntax-ns#"
   xmlns:svg="http://www.w3.org/2000/svg"
   xmlns="http://www.w3.org/2000/svg"
   xmlns:inkscape="http://www.inkscape.org/namespaces/inkscape"
   version="1.1"
   width="864"
   height="432"
   viewBox="0 0 864 432"
   id="Layer_1"
   xml:space="preserve"><metadata
     id="metadata139"><rdf:RDF><cc:Work
         rdf:about=""><dc:format>image/svg+xml</dc:format><dc:type
           rdf:resource="http://purl.org/dc/dcmitype/StillImage" /></cc:Work></rdf:RDF></metadata><defs
     id="defs137" /><g
     id="g3"><g
       id="g5"><path
         d="m 433.866,168.035 -71.036,65.43 v 56.561 c 0,8.674 8.595,15.704 19.199,15.704 h 103.676 c 10.603,0 19.199,-7.03 19.199,-15.704 v -56.561 l -71.038,-65.43 z"
         inkscape:connector-curvature="0"
         id="path7" /><g
         id="g9"><g
           id="g11"><path
             d="m 433.866,168.034 c -9.054,4.952 -14.969,8.567 -23.825,16.643 l -9.649,8.854 -19.905,18.329 -10.875,10.017 -5.593,5.151 -3.078,2.835 -1.411,1.3 -0.354,0.325 -0.176,0.163 -0.088,0.081 c -0.021,0.031 -0.006,0.078 -0.01,0.116 v 0.961 3.125 l 0.006,49.415 0,3.011 0,1.498 c -0.002,0.547 0.022,1.267 0.089,1.888 0.255,2.579 1.134,5.05 2.405,7.172 2.571,4.271 6.518,7.141 10.615,8.806 2.061,0.838 4.187,1.384 6.307,1.672 1.06,0.146 2.119,0.223 3.168,0.245 l 2.762,0.005 10.319,-0.003 44.882,-0.013 47.444,-0.013 c 4.042,-0.176 8.27,-1.246 12.11,-3.531 3.803,-2.256 7.331,-5.857 8.947,-10.711 0.398,-1.2 0.67,-2.462 0.791,-3.744 0.029,-0.321 0.052,-0.643 0.063,-0.965 l 0.014,-0.893 v -1.496 l 10e-4,-6.053 0.003,-12.387 0.003,-25.445 10e-4,-6.406 v -3.612 -1.591 c -0.03,-0.516 0.157,-1.128 -0.403,-1.412 l -2.239,-2.063 -9.324,-8.589 -39.173,-36.042 c -8.859,-8.077 -14.773,-11.692 -23.827,-16.643 5.678,8.617 9.766,14.215 18.541,22.381 l 39.134,36.083 9.325,8.589 0.107,0.099 c 0.004,0.003 0.002,0.01 0.003,0.015 v 2.786 l 10e-4,6.406 0.003,25.445 0.003,12.387 10e-4,6.053 v 1.496 l -0.008,0.597 c -0.006,0.174 -0.019,0.347 -0.033,0.519 -0.064,0.688 -0.21,1.364 -0.428,2.021 -0.86,2.64 -2.96,4.938 -5.519,6.449 -2.563,1.531 -5.541,2.314 -8.436,2.438 l -47.107,0.032 -44.882,-0.013 -10.319,-0.003 -2.61,-0.004 c -0.753,-0.018 -1.51,-0.071 -2.262,-0.177 -1.504,-0.205 -2.996,-0.592 -4.411,-1.168 -2.826,-1.138 -5.365,-3.096 -6.835,-5.566 -0.732,-1.231 -1.198,-2.568 -1.334,-3.948 -0.036,-0.367 -0.047,-0.643 -0.048,-1.092 l 0,-1.498 0,-3.011 0.006,-49.415 v -0.742 c -0.002,-0.007 0.006,-0.009 0.009,-0.014 l 2.574,-2.37 5.593,-5.151 10.875,-10.018 19.899,-18.334 9.615,-8.89 c 8.777,-8.166 12.865,-13.764 18.543,-22.382 z"
             inkscape:connector-curvature="0"
             id="path13" /></g></g></g><g
       id="g15"><line
         x1="433.866"
         y1="137.009"
         x2="524.95697"
         y2="220.91"
         id="line17" /><g
         id="g19"><g
           id="g21"><path
             d="m 433.866,137.01 c 5.678,8.617 9.766,14.215 18.541,22.379 l 8.957,8.284 13.938,12.805 12.718,11.751 13.111,12.039 c 8.858,8.077 14.772,11.691 23.826,16.643 -5.678,-8.617 -9.766,-14.214 -18.541,-22.38 l -13.074,-12.08 -12.755,-11.71 -13.904,-12.84 -8.991,-8.248 c -8.858,-8.077 -14.772,-11.692 -23.826,-16.643 z"
             inkscape:connector-curvature="0"
             id="path23" /></g></g></g><g
       id="g25"><path
         d="M 464.813,165.398"
         inkscape:connector-curvature="0"
         id="path27" /><path
         d="M 464.813,165.398"
         inkscape:connector-curvature="0"
         id="path29"
         style="fill:none;stroke:#000000;stroke-linecap:round" /></g><g
       id="g31"><path
         d="M 464.813,121.342"
         inkscape:connector-curvature="0"
         id="path33" /><path
         d="M 464.813,121.342"
         inkscape:connector-curvature="0"
         id="path35"
         style="fill:none;stroke:#000000;stroke-linecap:round" /></g><g
       id="g37"><line
         x1="430.88199"
         y1="138.317"
         x2="339.79001"
         y2="222.21899"
         id="line39" /><g
         id="g41"><g
           id="g43"><path
             d="m 430.881,138.316 c -9.054,4.952 -14.968,8.567 -23.825,16.643 l -8.99,8.248 -13.905,12.841 -12.755,11.711 -13.074,12.08 c -8.776,8.166 -12.864,13.763 -18.542,22.38 9.054,-4.952 14.968,-8.566 23.826,-16.643 l 13.112,-12.039 12.718,-11.751 13.938,-12.805 8.958,-8.284 c 8.774,-8.165 12.862,-13.763 18.539,-22.381 z"
             inkscape:connector-curvature="0"
             id="path45" /></g></g></g></g><g
     id="g47"><g
       id="g49"><g
         id="g51"><path
           d="m 470.238,121.342 c -2.491,2.382 -3.84,3.999 -3.899,6.85 -0.065,3.088 0,18.553 0,18.553 0,0 -0.065,15.464 0,18.552 0.06,2.851 1.408,4.468 3.899,6.85 2.492,-2.382 3.84,-3.999 3.901,-6.85 0.065,-3.088 0,-18.552 0,-18.552 0,0 0.065,-15.465 0,-18.553 -0.061,-2.851 -1.409,-4.468 -3.901,-6.85 z"
           inkscape:connector-curvature="0"
           id="path53" /></g></g></g><g
     id="g55"><g
       id="g57"><path
         d="m 477.59,288.402 c 0,3.929 -3.51,7.114 -7.84,7.114 h -43.307 c -4.329,0 -7.839,-3.186 -7.839,-7.114 v -41.003 c 0,-3.929 3.51,-7.113 7.839,-7.113 h 43.307 c 4.33,0 7.84,3.185 7.84,7.113 v 41.003 z"
         inkscape:connector-curvature="0"
         id="path59"
         style="fill:#ffffff" /><g
         id="g61"><g
           id="g63"><path
             d="m 477.59,288.402 c -0.654,2.541 -2.53,3.921 -4.249,4.444 -0.874,0.272 -1.749,0.342 -2.569,0.272 -0.205,-0.016 -0.408,-0.044 -0.608,-0.08 -0.215,-0.032 -0.351,-0.08 -0.662,-0.125 l -1.659,-0.26 c -4.45,-0.656 -9.146,-1.008 -15.139,-1.038 l -12.201,-0.024 -9.611,-0.004 h -2.608 l -1.327,-10e-4 -0.599,-0.003 c -0.124,10e-4 -0.246,-0.011 -0.368,-0.019 -0.97,-0.091 -1.898,-0.501 -2.528,-1.119 -0.316,-0.305 -0.555,-0.649 -0.707,-0.999 -0.154,-0.378 -0.222,-0.65 -0.222,-1.143 l -0.002,-5.562 -0.005,-10.762 -0.018,-24.601 c 0.008,0.001 -0.017,-0.238 0.089,-0.648 0.106,-0.401 0.372,-1.029 1.123,-1.631 0.372,-0.294 0.86,-0.563 1.445,-0.73 0.645,-0.182 1.021,-0.184 2.561,-0.174 l 8.542,0.006 19.895,0.011 10.183,0.002 h 2.472 l 1.092,0.004 c 0.223,0.01 0.441,0.025 0.653,0.066 0.848,0.143 1.601,0.529 2.128,1.024 0.351,0.326 0.602,0.691 0.757,1.05 0.156,0.385 0.22,0.659 0.221,1.132 l 0.006,4.979 0.019,7.131 c 0.056,11.99 1.404,18.789 3.896,28.802 2.491,-10.014 3.84,-16.813 3.9,-28.8 l 0.019,-7.131 0.006,-4.979 c 0.018,-1.313 -0.261,-2.895 -0.864,-4.252 -0.597,-1.386 -1.499,-2.646 -2.609,-3.679 -1.678,-1.568 -3.837,-2.623 -6.139,-3.019 -0.575,-0.104 -1.158,-0.156 -1.743,-0.178 l -0.733,-0.009 h -0.611 -2.472 l -10.183,0.002 -19.895,0.01 -8.542,0.007 c -0.681,0.01 -1.153,-0.023 -2.162,0.034 -0.884,0.063 -1.739,0.214 -2.544,0.444 -1.612,0.463 -3.018,1.225 -4.151,2.125 -2.294,1.808 -3.41,4.136 -3.817,5.761 -0.416,1.65 -0.321,2.596 -0.344,2.589 l -0.021,24.653 -0.006,10.762 -0.002,5.562 c -0.019,1.367 0.282,2.957 0.874,4.278 0.587,1.351 1.443,2.541 2.452,3.515 2.021,1.958 4.646,3.046 7.243,3.291 0.325,0.027 0.649,0.05 0.972,0.053 l 0.738,0.005 h 1.327 l 2.608,-0.001 9.611,-0.004 12.201,-0.024 c 5.992,-0.03 10.688,-0.383 15.139,-1.039 l 1.659,-0.26 c 0.238,-0.047 0.653,-0.093 0.986,-0.168 0.348,-0.069 0.691,-0.157 1.027,-0.266 1.345,-0.424 2.579,-1.118 3.591,-2.045 2.042,-1.802 3.147,-4.701 2.485,-7.237 z"
             inkscape:connector-curvature="0"
             id="path65"
             style="fill:#ffffff" /></g></g></g><g
       id="g67"><circle
         cx="447.625"
         cy="268.37299"
         r="7.3460002"
         id="circle69" /><g
         id="g71"><g
           id="g73"><path
             d="m 454.971,268.373 c -1.26,1.077 -2.395,1.466 -3.218,1.752 -0.84,0.277 -1.38,0.442 -1.849,0.829 -0.253,0.208 -0.805,0.606 -1.582,0.766 -0.785,0.164 -1.778,0.033 -2.53,-0.461 -0.775,-0.479 -1.265,-1.258 -1.446,-1.854 -0.188,-0.603 -0.155,-1.035 -0.166,-1.032 0.011,0.002 -0.021,-0.43 0.166,-1.032 0.182,-0.596 0.671,-1.374 1.446,-1.854 0.751,-0.494 1.745,-0.625 2.53,-0.461 0.778,0.159 1.329,0.558 1.582,0.766 0.469,0.387 1.009,0.552 1.849,0.829 0.823,0.286 1.958,0.675 3.218,1.752 1.244,-1.087 1.968,-2.509 2.05,-3.993 0.077,-1.479 -0.487,-3.086 -1.949,-4.433 -0.771,-0.715 -2.559,-2.077 -5.166,-2.615 -1.292,-0.266 -2.729,-0.319 -4.185,-0.07 -1.455,0.245 -2.902,0.806 -4.148,1.606 -2.532,1.588 -4.099,4.131 -4.686,6.127 -0.608,2.016 -0.48,3.388 -0.508,3.378 0.027,-0.011 -0.101,1.362 0.508,3.377 0.587,1.996 2.153,4.539 4.686,6.128 1.245,0.801 2.692,1.36 4.147,1.605 1.457,0.25 2.894,0.196 4.186,-0.069 2.607,-0.539 4.396,-1.901 5.165,-2.616 1.462,-1.346 2.026,-2.952 1.949,-4.431 -0.082,-1.485 -0.805,-2.907 -2.049,-3.994 z"
             inkscape:connector-curvature="0"
             id="path75" /></g></g></g><g
       id="g77"><line
         fill="#FFFFFF"
         x1="448.09799"
         y1="272.87799"
         x2="448.09799"
         y2="285.91101"
         id="line79"
         style="fill:#ffffff" /><g
         id="g81"><g
           id="g83"><path
             d="m 448.098,272.878 c -2.492,0.611 -3.84,1.026 -3.9,1.757 -0.064,0.793 0,4.76 0,4.76 0,0 -0.064,3.967 0,4.76 0.061,0.731 1.408,1.146 3.9,1.757 2.491,-0.611 3.84,-1.025 3.9,-1.757 0.065,-0.793 0,-4.76 0,-4.76 0,0 0.065,-3.967 0,-4.76 -0.06,-0.731 -1.409,-1.146 -3.9,-1.757 z"
             inkscape:connector-curvature="0"
             id="path85" /></g></g></g><g
       id="g87"><path
         d="m 462.328,236.985 c 0,4.763 -3.861,8.623 -8.623,8.623 h -11.217 c -4.762,0 -8.622,-3.86 -8.622,-8.623 v -22.971 c 0,-4.762 3.86,-8.623 8.622,-8.623 h 11.217 c 4.762,0 8.623,3.86 8.623,8.623 v 22.971 z"
         inkscape:connector-curvature="0"
         id="path89" /><g
         id="g91"><g
           id="g93"><path
             d="m 462.328,236.985 c -0.637,2.521 -2.22,4.197 -3.851,5.077 -1.673,0.894 -3.327,1.024 -4.888,0.684 -2.225,-0.328 -4.511,-0.58 -6.99,-0.754 -1.24,-0.087 -2.528,-0.154 -3.881,-0.201 l -0.244,-0.01 -0.144,-0.013 c -0.097,-0.003 -0.191,-0.022 -0.287,-0.031 -0.19,-0.027 -0.381,-0.063 -0.569,-0.112 -0.376,-0.1 -0.753,-0.231 -1.114,-0.424 -0.589,-0.303 -1.386,-0.881 -1.95,-1.867 -0.28,-0.488 -0.495,-1.068 -0.579,-1.72 -0.022,-0.162 -0.037,-0.33 -0.038,-0.502 l -0.004,-0.367 v -0.477 l 0.002,-1.976 -0.024,-18.255 0.006,-1.682 0.003,-0.381 0.01,-0.249 c 0.014,-0.171 0.029,-0.354 0.067,-0.543 0.065,-0.38 0.195,-0.789 0.391,-1.201 0.39,-0.822 1.121,-1.624 2.022,-2.104 0.451,-0.236 0.932,-0.408 1.418,-0.486 0.243,-0.04 0.485,-0.069 0.727,-0.068 l 1.211,-0.004 10.407,0.004 c 1.681,0.111 2.814,1.051 3.361,1.739 0.522,0.639 0.862,1.354 1.04,2.083 0.05,0.182 0.08,0.367 0.107,0.552 0.019,0.092 0.02,0.187 0.033,0.279 l 0.026,0.459 0.115,1.898 c 0.174,2.48 0.426,4.766 0.754,6.991 0.657,4.451 1.617,8.655 2.863,13.661 1.245,-5.007 2.205,-9.21 2.861,-13.66 0.328,-2.225 0.58,-4.511 0.754,-6.991 l 0.116,-1.898 0.022,-0.515 c 10e-4,-0.233 0.01,-0.468 -0.003,-0.705 -0.019,-0.473 -0.058,-0.954 -0.137,-1.437 -0.297,-1.93 -1.113,-3.903 -2.471,-5.601 -0.735,-0.922 -1.796,-1.99 -3.289,-2.896 -1.482,-0.899 -3.417,-1.636 -5.63,-1.78 -0.275,-0.025 -0.554,-0.022 -0.836,-0.031 l -0.595,-0.001 -1.221,-0.001 -2.59,-0.002 -5.69,-0.003 -1.337,0.003 c -0.632,0.005 -1.28,0.07 -1.932,0.18 -1.305,0.218 -2.613,0.672 -3.816,1.318 -2.416,1.292 -4.32,3.417 -5.356,5.626 -0.523,1.103 -0.857,2.211 -1.03,3.227 -0.092,0.507 -0.14,0.992 -0.168,1.442 -0.015,0.225 -0.015,0.442 -0.021,0.65 l 0,0.445 0.005,1.682 -0.024,18.255 0.002,1.976 0,0.477 0.007,0.573 c 0.009,0.449 0.047,0.894 0.106,1.327 0.23,1.741 0.819,3.311 1.573,4.607 1.521,2.617 3.621,4.114 5.205,4.906 0.972,0.493 1.988,0.83 2.998,1.038 0.506,0.103 1.011,0.171 1.51,0.207 0.25,0.014 0.498,0.032 0.744,0.029 h 0.368 l 0.264,-0.008 c 1.353,-0.048 2.641,-0.115 3.881,-0.202 2.479,-0.174 4.766,-0.426 6.99,-0.754 2.892,-0.286 5.572,-1.824 7.151,-4 1.621,-2.157 2.226,-4.973 1.589,-7.483 z"
             inkscape:connector-curvature="0"
             id="path95"
             style="fill:#ffffff" /></g></g></g></g><path
     d="M 320.31,236.882"
     inkscape:connector-curvature="0"
     id="path97"
     style="fill:none;stroke:#000000;stroke-width:7" /><g
     id="g99"><g
       id="g101"><path
         d="m 402.534,240.016 c -0.12,5.639 -4.791,10.111 -10.43,9.992 -5.64,-0.122 -10.114,-4.791 -9.993,-10.431 0.122,-5.643 4.792,-10.115 10.431,-9.996 5.64,0.123 10.114,4.792 9.992,10.435 z"
         inkscape:connector-curvature="0"
         id="path103" /><g
         id="g105"><g
           id="g107"><path
             d="m 402.534,240.016 c -1.294,1.473 -2.524,2.189 -3.505,2.8 -1.002,0.599 -1.769,1.093 -2.63,1.8 -0.461,0.378 -1.485,1.099 -2.931,1.363 -1.444,0.278 -3.263,-0.008 -4.631,-0.951 -1.402,-0.914 -2.262,-2.359 -2.568,-3.469 -0.32,-1.122 -0.239,-1.904 -0.257,-1.899 0.018,0.005 -0.029,-0.781 0.339,-1.888 0.355,-1.096 1.276,-2.503 2.716,-3.355 1.407,-0.883 3.236,-1.091 4.667,-0.751 1.433,0.328 2.425,1.092 2.869,1.489 0.83,0.744 1.575,1.271 2.55,1.912 0.952,0.653 2.151,1.422 3.381,2.949 1.273,-1.482 1.957,-3.243 1.933,-5.075 -0.032,-1.823 -0.77,-3.792 -2.572,-5.517 -0.95,-0.916 -3.158,-2.67 -6.41,-3.416 -1.609,-0.368 -3.419,-0.476 -5.251,-0.201 -1.832,0.268 -3.661,0.931 -5.245,1.901 -3.22,1.924 -5.255,5.072 -6.045,7.559 -0.819,2.509 -0.697,4.235 -0.731,4.223 0.035,-0.012 -0.162,1.709 0.547,4.252 0.683,2.518 2.58,5.751 5.714,7.813 1.541,1.038 3.339,1.778 5.158,2.125 1.819,0.354 3.63,0.324 5.255,0.026 3.281,-0.604 5.563,-2.262 6.551,-3.136 1.875,-1.644 2.698,-3.579 2.809,-5.399 0.102,-1.83 -0.504,-3.619 -1.713,-5.155 z"
             inkscape:connector-curvature="0"
             id="path109"
             style="fill:#ffffff" /></g></g></g><g
       id="g111"><g
         id="g113"><g
           id="g115"><path
             d="m 392.085,250.828 c -2.542,2.314 -3.924,3.893 -4.045,6.726 -0.131,3.067 -0.396,18.441 -0.396,18.441 0,0 -0.395,15.371 -0.396,18.442 -10e-4,2.835 1.313,4.472 3.753,6.893 2.542,-2.314 3.924,-3.893 4.046,-6.726 0.131,-3.068 0.396,-18.441 0.396,-18.441 0,0 0.395,-15.371 0.396,-18.442 0,-2.835 -1.313,-4.472 -3.754,-6.893 z"
             inkscape:connector-curvature="0"
             id="path117"
             style="fill:#ffffff" /></g></g></g><g
       id="g119"><g
         id="g121"><g
           id="g123"><path
             d="m 392.147,283.225 c 0.485,2.502 0.821,3.857 1.464,3.932 0.696,0.08 4.191,0.09 4.191,0.09 0,0 3.493,0.139 4.191,0.089 0.646,-0.046 1.04,-1.386 1.631,-3.866 -0.485,-2.502 -0.821,-3.857 -1.464,-3.933 -0.696,-0.08 -4.191,-0.09 -4.191,-0.09 0,0 -3.493,-0.14 -4.191,-0.089 -0.645,0.046 -1.039,1.386 -1.631,3.867 z"
             inkscape:connector-curvature="0"
             id="path125"
             style="fill:#ffffff" /></g></g></g><g
       id="g127"><g
         id="g129"><g
           id="g131"><path
             d="m 391.231,290.691 c 0.426,2.501 0.722,3.855 1.293,3.928 0.62,0.078 3.729,0.08 3.729,0.08 0,0 3.107,0.131 3.729,0.079 0.574,-0.048 0.928,-1.389 1.46,-3.87 -0.426,-2.501 -0.722,-3.855 -1.293,-3.929 -0.62,-0.079 -3.729,-0.08 -3.729,-0.08 0,0 -3.107,-0.131 -3.729,-0.079 -0.574,0.049 -0.928,1.39 -1.46,3.871 z"
             inkscape:connector-curvature="0"
             id="path133"
             style="fill:#ffffff" /></g></g></g></g></svg>