<?xml version="1.0" encoding="UTF-8" standalone="no"?>
<!-- Created with Inkscape (http://www.inkscape.org/) -->

<svg
   xmlns:dc="http://purl.org/dc/elements/1.1/"
   xmlns:cc="http://creativecommons.org/ns#"
   xmlns:rdf="http://www.w3.org/1999/02/22-rdf-syntax-ns#"
   xmlns:svg="http://www.w3.org/2000/svg"
   xmlns="http://www.w3.org/2000/svg"
   xmlns:inkscape="http://www.inkscape.org/namespaces/inkscape"
   version="1.1"
   width="864"
   height="432"
   viewBox="0 0 864 432"
   id="Layer_1"
   xml:space="preserve"><metadata
     id="metadata121"><rdf:RDF><cc:Work
         rdf:about=""><dc:format>image/svg+xml</dc:format><dc:type
           rdf:resource="http://purl.org/dc/dcmitype/StillImage" /></cc:Work></rdf:RDF></metadata><defs
     id="defs119" /><g
     id="g3"><g
       id="g5"><g
         id="g7"><g
           id="g9"><path
             d="m 433.866,168.034 c -9.054,4.952 -14.969,8.567 -23.825,16.643 l -9.649,8.854 -19.905,18.329 -10.875,10.017 -5.593,5.151 -3.078,2.835 -1.411,1.3 -0.354,0.325 -0.176,0.163 -0.088,0.081 c -0.021,0.031 -0.006,0.078 -0.01,0.116 v 0.961 3.125 l 0.006,49.415 0,3.011 0,1.498 c -0.002,0.547 0.022,1.267 0.089,1.888 0.255,2.579 1.134,5.05 2.405,7.172 2.571,4.271 6.518,7.141 10.615,8.806 2.061,0.838 4.187,1.384 6.307,1.672 1.06,0.146 2.119,0.223 3.168,0.245 l 2.762,0.005 10.319,-0.003 44.882,-0.013 47.444,-0.013 c 4.042,-0.176 8.27,-1.246 12.11,-3.531 3.803,-2.256 7.331,-5.857 8.947,-10.711 0.398,-1.2 0.67,-2.462 0.791,-3.744 0.029,-0.321 0.052,-0.643 0.063,-0.965 l 0.014,-0.893 v -1.496 l 10e-4,-6.053 0.003,-12.387 0.003,-25.445 10e-4,-6.406 v -3.612 -1.591 c -0.03,-0.516 0.157,-1.128 -0.403,-1.412 l -2.239,-2.063 -9.324,-8.589 -39.173,-36.042 c -8.859,-8.077 -14.773,-11.692 -23.827,-16.643 5.678,8.617 9.766,14.215 18.541,22.381 l 39.134,36.083 9.325,8.589 0.107,0.099 c 0.004,0.003 0.002,0.01 0.003,0.015 v 2.786 l 10e-4,6.406 0.003,25.445 0.003,12.387 10e-4,6.053 v 1.496 l -0.008,0.597 c -0.006,0.174 -0.019,0.347 -0.033,0.519 -0.064,0.688 -0.21,1.364 -0.428,2.021 -0.86,2.64 -2.96,4.938 -5.519,6.449 -2.563,1.531 -5.541,2.314 -8.436,2.438 l -47.107,0.032 -44.882,-0.013 -10.319,-0.003 -2.61,-0.004 c -0.753,-0.018 -1.51,-0.071 -2.262,-0.177 -1.504,-0.205 -2.996,-0.592 -4.411,-1.168 -2.826,-1.138 -5.365,-3.096 -6.835,-5.566 -0.732,-1.231 -1.198,-2.568 -1.334,-3.948 -0.036,-0.367 -0.047,-0.643 -0.048,-1.092 l 0,-1.498 0,-3.011 0.006,-49.415 v -0.742 c -0.002,-0.007 0.006,-0.009 0.009,-0.014 l 2.574,-2.37 5.593,-5.151 10.875,-10.018 19.899,-18.334 9.615,-8.89 c 8.777,-8.166 12.865,-13.764 18.543,-22.382 z"
             inkscape:connector-curvature="0"
             id="path11" /></g></g></g><g
       id="g13"><line
         fill="#F9B334"
         x1="433.866"
         y1="137.009"
         x2="524.95697"
         y2="220.91"
         id="line15"
         style="fill:#f9b334" /><g
         id="g17"><g
           id="g19"><path
             d="m 433.866,137.01 c 5.678,8.617 9.766,14.215 18.541,22.379 l 8.957,8.284 13.938,12.805 12.718,11.751 13.111,12.039 c 8.858,8.077 14.772,11.691 23.826,16.643 -5.678,-8.617 -9.766,-14.214 -18.541,-22.38 l -13.074,-12.08 -12.755,-11.71 -13.904,-12.84 -8.991,-8.248 c -8.858,-8.077 -14.772,-11.692 -23.826,-16.643 z"
             inkscape:connector-curvature="0"
             id="path21" /></g></g></g><g
       id="g23"><path
         d="M 464.813,165.398"
         inkscape:connector-curvature="0"
         id="path25"
         style="fill:none;stroke:#000000;stroke-linecap:round" /></g><g
       id="g27"><path
         d="M 464.813,121.342"
         inkscape:connector-curvature="0"
         id="path29"
         style="fill:none;stroke:#000000;stroke-linecap:round" /></g><g
       id="g31"><line
         fill="#F9B334"
         x1="430.88199"
         y1="138.317"
         x2="339.79001"
         y2="222.21899"
         id="line33"
         style="fill:#f9b334" /><g
         id="g35"><g
           id="g37"><path
             d="m 430.881,138.316 c -9.054,4.952 -14.968,8.567 -23.825,16.643 l -8.99,8.248 -13.905,12.841 -12.755,11.711 -13.074,12.08 c -8.776,8.166 -12.864,13.763 -18.542,22.38 9.054,-4.952 14.968,-8.566 23.826,-16.643 l 13.112,-12.039 12.718,-11.751 13.938,-12.805 8.958,-8.284 c 8.774,-8.165 12.862,-13.763 18.539,-22.381 z"
             inkscape:connector-curvature="0"
             id="path39" /></g></g></g></g><text
     transform="matrix(0.5163,0.8564,-0.8564,0.5163,412.7891,267.085)"
     id="text41"
     style="font-size:36px;font-family:AgencyFB-Reg">$</text>
<text
     transform="matrix(0.9813,0.1923,-0.1923,0.9813,483.5547,296.2607)"
     id="text43"
     style="font-size:36px;font-family:AgencyFB-Reg">$</text>
<text
     transform="matrix(0.3825,0.9239,-0.9239,0.3825,426.3398,273.7412)"
     id="text45"
     style="font-size:36px;font-family:AgencyFB-Reg">$</text>
<text
     transform="matrix(-0.0338,0.9994,-0.9994,-0.0338,426.3398,282.9961)"
     id="text47"
     style="font-size:36px;font-family:AgencyFB-Reg">$</text>
<text
     transform="matrix(0.5049,0.8632,-0.8632,0.5049,390.8223,288.9385)"
     id="text49"
     style="font-size:36px;font-family:AgencyFB-Reg">$</text>
<text
     transform="matrix(0.9294,-0.3692,0.3692,0.9294,375.4302,296.2607)"
     id="text51"
     style="font-size:36px;font-family:AgencyFB-Reg">$</text>
<text
     transform="matrix(0.8741,-0.4858,0.4858,0.8741,390.8223,288.9385)"
     id="text53"
     style="font-size:36px;font-family:AgencyFB-Reg">$</text>
<text
     transform="matrix(0.7932,-0.609,0.609,0.7932,479.4121,285.5293)"
     id="text55"
     style="font-size:36px;font-family:AgencyFB-Reg">$</text>
<text
     transform="matrix(0.7924,-0.61,0.61,0.7924,467.9463,300.6797)"
     id="text57"
     style="font-size:36px;font-family:AgencyFB-Reg">$</text>
<g
     id="g59"><path
       d="m 318.909,301.568 0,-39.553 c 0,0 14.179,-9.701 34.328,0 v 39.553 c -20.149,9.701 -34.328,0 -34.328,0"
       inkscape:connector-curvature="0"
       id="path61"
       style="fill:none;stroke:#000000" /><g
       id="g63"><path
         d="m 318.909,260.576 c 0,0 14.179,9.701 34.329,0"
         inkscape:connector-curvature="0"
         id="path65" /><path
         d="m 318.91,261.426 c 0,0 14.179,-9.701 34.328,0"
         inkscape:connector-curvature="0"
         id="path67" /></g><path
       d="m 318.909,264.889 c 0,0 12.664,8.074 34.329,0"
       inkscape:connector-curvature="0"
       id="path69"
       style="fill:none;stroke:#000000;stroke-width:3" /><path
       d="m 318.91,298.176 c 0,0 12.664,8.074 34.329,0"
       inkscape:connector-curvature="0"
       id="path71"
       style="fill:none;stroke:#000000;stroke-width:3" /><path
       d="m 318.909,291.518 c 0,0 12.664,8.074 34.329,0"
       inkscape:connector-curvature="0"
       id="path73"
       style="fill:none;stroke:#000000;stroke-width:3" /><path
       d="m 318.909,284.861 c 0,0 12.664,8.074 34.329,0"
       inkscape:connector-curvature="0"
       id="path75"
       style="fill:none;stroke:#000000;stroke-width:3" /><path
       d="m 318.909,278.203 c 0,0 12.664,8.074 34.329,0"
       inkscape:connector-curvature="0"
       id="path77"
       style="fill:none;stroke:#000000;stroke-width:3" /><path
       d="m 318.909,271.546 c 0,0 4.997,3.187 14.083,3.554 5.378,0.218 12.189,-0.552 20.245,-3.554"
       inkscape:connector-curvature="0"
       id="path79"
       style="fill:none;stroke:#000000;stroke-width:3" /></g><g
     id="g81"><path
       d="m 280.178,298.852 0,-58.896 c 0,0 14.179,-14.445 34.329,0 v 58.896 c -20.15,14.444 -34.329,0 -34.329,0"
       inkscape:connector-curvature="0"
       id="path83"
       style="fill:none;stroke:#000000" /><g
       id="g85"><path
         d="m 280.178,237.236 c 0,0 14.179,9.701 34.329,0"
         inkscape:connector-curvature="0"
         id="path87" /><path
         d="m 280.178,238.086 c 0,0 14.179,-9.701 34.329,0"
         inkscape:connector-curvature="0"
         id="path89" /></g><path
       d="m 280.178,241.549 c 0,0 12.664,8.074 34.329,0"
       inkscape:connector-curvature="0"
       id="path91"
       style="fill:none;stroke:#000000;stroke-width:3" /><path
       d="m 280.178,277.526 c 0,0 12.664,8.074 34.329,0"
       inkscape:connector-curvature="0"
       id="path93"
       style="fill:none;stroke:#000000;stroke-width:3" /><path
       d="m 280.178,270.33 c 0,0 12.664,8.074 34.329,0"
       inkscape:connector-curvature="0"
       id="path95"
       style="fill:none;stroke:#000000;stroke-width:3" /><path
       d="m 280.178,263.136 c 0,0 12.664,8.074 34.329,0"
       inkscape:connector-curvature="0"
       id="path97"
       style="fill:none;stroke:#000000;stroke-width:3" /><path
       d="m 280.178,255.939 c 0,0 12.664,8.074 34.329,0"
       inkscape:connector-curvature="0"
       id="path99"
       style="fill:none;stroke:#000000;stroke-width:3" /><path
       d="m 280.178,248.744 c 0,0 4.997,3.187 14.083,3.554 5.378,0.218 12.189,-0.552 20.246,-3.554"
       inkscape:connector-curvature="0"
       id="path101"
       style="fill:none;stroke:#000000;stroke-width:3" /><path
       d="m 280.178,291.918 c 0,0 12.664,8.074 34.329,0"
       inkscape:connector-curvature="0"
       id="path103"
       style="fill:none;stroke:#000000;stroke-width:3" /><path
       d="m 280.177,284.722 c 0,0 12.664,8.074 34.329,0"
       inkscape:connector-curvature="0"
       id="path105"
       style="fill:none;stroke:#000000;stroke-width:3" /><path
       d="m 280.176,299.113 c 0,0 12.664,8.074 34.329,0"
       inkscape:connector-curvature="0"
       id="path107"
       style="fill:none;stroke:#000000;stroke-width:3" /></g><g
     id="g109"><g
       id="g111"><g
         id="g113"><path
           d="m 472.016,121.342 c -2.503,2.47 -3.858,4.149 -3.932,7.118 -0.078,3.216 -0.083,19.325 -0.083,19.325 0,0 -0.135,16.108 -0.083,19.325 0.047,2.97 1.388,4.66 3.869,7.152 2.502,-2.47 3.857,-4.149 3.932,-7.118 0.079,-3.216 0.083,-19.325 0.083,-19.325 0,0 0.135,-16.108 0.083,-19.325 -0.048,-2.97 -1.389,-4.66 -3.869,-7.152 z"
           inkscape:connector-curvature="0"
           id="path115" /></g></g></g></svg>