<?xml version="1.0" encoding="UTF-8" standalone="no"?>
<!-- Created with Inkscape (http://www.inkscape.org/) -->

<svg
   xmlns:dc="http://purl.org/dc/elements/1.1/"
   xmlns:cc="http://creativecommons.org/ns#"
   xmlns:rdf="http://www.w3.org/1999/02/22-rdf-syntax-ns#"
   xmlns:svg="http://www.w3.org/2000/svg"
   xmlns="http://www.w3.org/2000/svg"
   xmlns:inkscape="http://www.inkscape.org/namespaces/inkscape"
   version="1.1"
   width="864"
   height="432"
   viewBox="0 0 864 432"
   id="Layer_1"
   xml:space="preserve"><metadata
     id="metadata39"><rdf:RDF><cc:Work
         rdf:about=""><dc:format>image/svg+xml</dc:format><dc:type
           rdf:resource="http://purl.org/dc/dcmitype/StillImage" /></cc:Work></rdf:RDF></metadata><defs
     id="defs37" /><g
     id="g3"><circle
       cx="410.59"
       cy="184.858"
       r="38.806"
       id="circle5"
       style="stroke:#000000;stroke-miterlimit:10" /><path
       d="M 204.567,316.813"
       inkscape:connector-curvature="0"
       id="path7"
       style="fill:#ffffff;stroke:#000000;stroke-miterlimit:10" /><circle
       cx="275.25299"
       cy="184.85899"
       r="38.806"
       id="circle9"
       style="stroke:#000000;stroke-miterlimit:10" /><g
       id="g11"><path
         d="m 343.374,226.124 -98.508,1.122 c -55.224,-8.209 -58.209,31.343 -58.209,31.343 v 65.672 H 500.09 V 258.59 c 0,0 -2.984,-39.553 -58.209,-31.343 l -98.507,-1.123"
         inkscape:connector-curvature="0"
         id="path13"
         style="stroke:#000000;stroke-miterlimit:10" /></g><g
       id="g15"><circle
         cx="356.10699"
         cy="261.229"
         r="26.962"
         id="circle17"
         style="fill:#ffffff" /><g
         id="g19"><path
           d="m 356.06,283.395 -48.785,0.838 c -27.349,-6.142 -28.827,23.45 -28.827,23.45 v 49.131 h 155.224 v -49.131 c 0,0 -1.478,-29.59 -28.827,-23.449 l -48.785,-0.839"
           inkscape:connector-curvature="0"
           id="path21"
           style="fill:#ffffff" /></g><g
         id="g23"><circle
           cx="356.10699"
           cy="261.229"
           r="24.254"
           id="circle25" /><g
           id="g27"><path
             d="m 356.107,287.081 -46.222,0.754 c -25.912,-5.524 -27.313,21.095 -27.313,21.095 v 44.197 H 429.64 V 308.93 c 0,0 -1.401,-26.618 -27.313,-21.094 l -46.22,-0.755"
             inkscape:connector-curvature="0"
             id="path29" /></g></g></g></g><path
     d="m 357.931,50.049 c 3.542,5.601 1.874,13.013 -3.727,16.557 L 110.861,220.533 c -5.601,3.543 -13.014,1.875 -16.556,-3.727 l -4.325,-6.835 c -3.542,-5.602 -1.874,-13.014 3.727,-16.557 L 337.049,39.486 c 5.601,-3.543 13.014,-1.875 16.557,3.727 l 4.325,6.836 z"
     inkscape:connector-curvature="0"
     id="path31"
     style="stroke:#000000;stroke-miterlimit:10" /><path
     d="m 333.792,49.871 c -3.611,5.557 -2.034,12.989 3.523,16.601 l 241.438,156.899 c 5.557,3.611 12.988,2.035 16.6,-3.523 l 4.408,-6.782 c 3.611,-5.558 2.033,-12.99 -3.523,-16.601 L 354.801,39.565 c -5.558,-3.611 -12.99,-2.034 -16.601,3.523 l -4.408,6.783 z"
     inkscape:connector-curvature="0"
     id="path33"
     style="stroke:#000000;stroke-miterlimit:10" /></svg>