<?xml version="1.0" encoding="UTF-8" standalone="no"?>
<!-- Created with Inkscape (http://www.inkscape.org/) -->

<svg
   xmlns:dc="http://purl.org/dc/elements/1.1/"
   xmlns:cc="http://creativecommons.org/ns#"
   xmlns:rdf="http://www.w3.org/1999/02/22-rdf-syntax-ns#"
   xmlns:svg="http://www.w3.org/2000/svg"
   xmlns="http://www.w3.org/2000/svg"
   xmlns:inkscape="http://www.inkscape.org/namespaces/inkscape"
   version="1.1"
   width="864"
   height="432"
   viewBox="0 0 864 432"
   id="Layer_1"
   xml:space="preserve"><metadata
     id="metadata35"><rdf:RDF><cc:Work
         rdf:about=""><dc:format>image/svg+xml</dc:format><dc:type
           rdf:resource="http://purl.org/dc/dcmitype/StillImage" /></cc:Work></rdf:RDF></metadata><defs
     id="defs33" /><path
     d="m 277.326,183.822 -27.324,38.809 v 33.551 c 0,5.144 3.306,9.313 7.384,9.313 h 39.88 c 4.078,0 7.385,-4.171 7.385,-9.313 v -33.551 l -27.325,-38.809 z"
     inkscape:connector-curvature="0"
     id="path3"
     style="fill:#dedc0a;stroke:#dedc0a;stroke-miterlimit:10" /><path
     d="m 277.326,165.42 35.039,49.765"
     inkscape:connector-curvature="0"
     id="path5"
     style="opacity:0.88999999;fill:#f9b334;stroke:#dedc0a;stroke-width:10;stroke-linecap:round" /><path
     d="m 276.176,166.194 -35.038,49.767"
     inkscape:connector-curvature="0"
     id="path7"
     style="opacity:0.88999999;fill:#f9b334;stroke:#dedc0a;stroke-width:10;stroke-linecap:round" /><line
     fill="none"
     stroke="#DEDC0A"
     stroke-width="12"
     stroke-linecap="round"
     enable-background="new    "
     x1="289.229"
     y1="151.257"
     x2="289.229"
     y2="177.38901"
     id="line9"
     style="fill:none;stroke:#dedc0a;stroke-width:12;stroke-linecap:round" /><path
     d="m 295.993,185.533 -27.324,38.81 v 33.55 c 0,5.145 3.306,9.314 7.385,9.314 h 39.879 c 4.077,0 7.385,-4.17 7.385,-9.314 v -33.55 l -27.325,-38.81 z"
     inkscape:connector-curvature="0"
     id="path11"
     style="fill:#3eab37;stroke:#3eab37;stroke-miterlimit:10" /><path
     d="m 295.993,167.131 35.039,49.766"
     inkscape:connector-curvature="0"
     id="path13"
     style="fill:#f9b334;stroke:#3eab37;stroke-width:10;stroke-linecap:round" /><path
     d="m 294.845,167.906 -35.038,49.767"
     inkscape:connector-curvature="0"
     id="path15"
     style="fill:#f9b334;stroke:#3eab37;stroke-width:10;stroke-linecap:round" /><line
     fill="none"
     stroke="#3EAB37"
     stroke-width="12"
     stroke-linecap="round"
     enable-background="new    "
     x1="307.897"
     y1="152.96899"
     x2="307.897"
     y2="179.10001"
     id="line17"
     style="fill:none;stroke:#3eab37;stroke-width:12;stroke-linecap:round" /><path
     d="m 315.91,185.533 -27.324,38.81 v 33.55 c 0,5.145 3.306,9.314 7.385,9.314 h 39.879 c 4.078,0 7.385,-4.17 7.385,-9.314 v -33.55 l -27.325,-38.81 z"
     inkscape:connector-curvature="0"
     id="path19"
     style="fill:#2a3180;stroke:#2a3180;stroke-miterlimit:10" /><path
     d="m 315.91,167.131 35.039,49.766"
     inkscape:connector-curvature="0"
     id="path21"
     style="fill:#f9b334;stroke:#2a3180;stroke-width:10;stroke-linecap:round" /><path
     d="m 314.761,167.906 -35.039,49.767"
     inkscape:connector-curvature="0"
     id="path23"
     style="fill:#f9b334;stroke:#2a3180;stroke-width:10;stroke-linecap:round" /><line
     fill="none"
     stroke="#2A3180"
     stroke-width="12"
     stroke-linecap="round"
     enable-background="new    "
     x1="327.81299"
     y1="152.96899"
     x2="327.81299"
     y2="179.10001"
     id="line25"
     style="fill:none;stroke:#2a3180;stroke-width:12;stroke-linecap:round" /><text
     transform="matrix(0.8043,0,0,1,355.4268,264.8418)"
     id="text27"
     style="font-size:114.04519653px;fill:#010202;font-family:AgencyFB-Reg">REWIZE</text>
<circle
     cx="487.73499"
     cy="161.218"
     r="8.2489996"
     id="circle29"
     style="fill:#fcea10" /></svg>