<?xml version="1.0" encoding="utf-8"?>
<!-- Generator: Adobe Illustrator 15.0.0, SVG Export Plug-In . SVG Version: 6.00 Build 0)  -->
<!DOCTYPE svg PUBLIC "-//W3C//DTD SVG 1.1//EN" "http://www.w3.org/Graphics/SVG/1.1/DTD/svg11.dtd">
<svg version="1.1" id="Layer_1" xmlns="http://www.w3.org/2000/svg" xmlns:xlink="http://www.w3.org/1999/xlink" x="0px" y="0px"
	 width="864px" height="432px" viewBox="0 0 864 432" enable-background="new 0 0 864 432" xml:space="preserve">
<path fill="#DEDC0A" stroke="#DEDC0A" stroke-miterlimit="10" d="M277.326,183.822l-27.324,38.809v33.551
	c0,5.145,3.306,9.313,7.384,9.313h39.88c4.078,0,7.385-4.171,7.385-9.313v-33.551L277.326,183.822z"/>
<path opacity="0.89" fill="#F9B334" stroke="#DEDC0A" stroke-width="10" stroke-linecap="round" enable-background="new    " d="
	M277.326,165.42l35.039,49.765"/>
<path opacity="0.89" fill="#F9B334" stroke="#DEDC0A" stroke-width="10" stroke-linecap="round" enable-background="new    " d="
	M276.176,166.194l-35.038,49.767"/>
<line fill="none" stroke="#DEDC0A" stroke-width="12" stroke-linecap="round" x1="289.229" y1="151.257" x2="289.229" y2="177.389"/>
<path fill="#3EAB37" stroke="#3EAB37" stroke-miterlimit="10" d="M295.993,185.533l-27.324,38.81v33.55
	c0,5.146,3.306,9.314,7.385,9.314h39.879c4.077,0,7.385-4.17,7.385-9.314v-33.55L295.993,185.533z"/>
<path fill="#F9B334" stroke="#3EAB37" stroke-width="10" stroke-linecap="round" d="M295.993,167.131l35.039,49.766"/>
<path fill="#F9B334" stroke="#3EAB37" stroke-width="10" stroke-linecap="round" d="M294.845,167.906l-35.038,49.767"/>
<line fill="none" stroke="#3EAB37" stroke-width="12" stroke-linecap="round" x1="307.897" y1="152.969" x2="307.897" y2="179.1"/>
<path fill="#2A3180" stroke="#2A3180" stroke-miterlimit="10" d="M315.91,185.533l-27.324,38.81v33.55
	c0,5.146,3.306,9.314,7.385,9.314h39.879c4.078,0,7.385-4.17,7.385-9.314v-33.55L315.91,185.533z"/>
<path fill="#F9B334" stroke="#2A3180" stroke-width="10" stroke-linecap="round" d="M315.91,167.131l35.039,49.766"/>
<path fill="#F9B334" stroke="#2A3180" stroke-width="10" stroke-linecap="round" d="M314.761,167.906l-35.039,49.767"/>
<line fill="none" stroke="#2A3180" stroke-width="12" stroke-linecap="round" x1="327.813" y1="152.969" x2="327.813" y2="179.1"/>
<text transform="matrix(0.8043 0 0 1 355.4268 264.8418)" fill="#010202" font-family="'AgencyFB-Reg'" font-size="114.0452">REWIZE</text>
<circle fill="#FCEA10" cx="487.735" cy="161.218" r="8.249"/>
</svg>
