<?xml version="1.0" encoding="utf-8"?>
<!-- Generator: Adobe Illustrator 15.0.0, SVG Export Plug-In . SVG Version: 6.00 Build 0)  -->
<!DOCTYPE svg PUBLIC "-//W3C//DTD SVG 1.1//EN" "http://www.w3.org/Graphics/SVG/1.1/DTD/svg11.dtd">
<svg version="1.1" id="Layer_1" xmlns="http://www.w3.org/2000/svg" xmlns:xlink="http://www.w3.org/1999/xlink" x="0px" y="0px"
	 width="432px" height="432px" viewBox="0 0 432 432" style="enable-background:new 0 0 432 432;" xml:space="preserve">
<g>
	<path style="fill:#00A19A;stroke:#00A19A;stroke-miterlimit:10;" d="M432,413.373c0,10.286-8.33,18.627-18.603,18.627H19.646
		c-10.273,0-18.603-8.341-18.603-18.627V19.1c0-10.288,8.329-18.627,18.603-18.627h393.752C423.67,0.472,432,8.812,432,19.1V413.373
		z"/>
	<path style="opacity:0.45;fill:none;stroke:#F6F6F6;stroke-width:7;stroke-miterlimit:10;" d="M25.846,41.855
		c0-10.288,8.329-18.627,18.603-18.627h344.146c10.273,0,18.603,8.34,18.603,18.627v344.601c0,10.287-8.329,18.627-18.603,18.627
		H44.449c-10.274,0-18.603-8.34-18.603-18.627V41.855z"/>
</g>
<path style="opacity:0.33;fill:#FFFFFF;stroke:#F6F6F6;stroke-width:2;stroke-miterlimit:10;" d="M215.876,209.634
	C329.126,208.995,420.545,115.487,421.769,0L7.269,2.336C9.995,117.8,102.626,210.271,215.876,209.634z"/>
<path id="f_1_" style="fill:#FFFFFF;" d="M246.854,367.685V233.101h45.151l6.78-52.459h-51.932V147.15
	c0-15.183,4.19-25.534,26.001-25.534l27.75-0.011V74.682c-4.789-0.626-21.28-2.056-40.452-2.056
	c-40.046,0-67.464,24.442-67.464,69.327v38.688h-45.293v52.459h45.293v134.584H246.854z"/>
</svg>
