<?xml version="1.0" encoding="utf-8"?>
<!-- Generator: Adobe Illustrator 15.0.0, SVG Export Plug-In . SVG Version: 6.00 Build 0)  -->
<!DOCTYPE svg PUBLIC "-//W3C//DTD SVG 1.1//EN" "http://www.w3.org/Graphics/SVG/1.1/DTD/svg11.dtd">
<svg version="1.1" id="Layer_1" xmlns="http://www.w3.org/2000/svg" xmlns:xlink="http://www.w3.org/1999/xlink" x="0px" y="0px"
	 width="864px" height="432px" viewBox="0 0 864 432" style="enable-background:new 0 0 864 432;" xml:space="preserve">
<g>
	<g>
		<path style="fill:#00A19A;stroke:#00A19A;stroke-miterlimit:10;" d="M409.417,410.807c0,10.047-7.815,18.193-17.454,18.193H22.519
			c-9.64,0-17.454-8.146-17.454-18.193V25.705c0-10.048,7.814-18.194,17.454-18.194h369.444c9.639,0,17.454,8.146,17.454,18.194
			V410.807z"/>
		<path style="opacity:0.45;fill:none;stroke:#F6F6F6;stroke-width:7;stroke-miterlimit:10;" d="M28.336,46.931
			c0-10.048,7.814-18.194,17.454-18.194h322.9c9.64,0,17.454,8.146,17.454,18.194v336.584c0,10.048-7.814,18.193-17.454,18.193
			h-322.9c-9.64,0-17.454-8.146-17.454-18.193V46.931z"/>
		<path style="fill:#FFFFFF;stroke:#F6F6F6;stroke-miterlimit:10;" d="M108.03,139.611c0,24.061,7.709,41.428,22.909,51.636
			c12.441,8.355,26.895,9.604,34.397,9.604c1.824,0,3.285-0.073,4.308-0.142c0,0-2.384,16.159,9.116,32.159l-0.519-0.009
			c-19.924,0.009-84.905,4.345-84.905,60.028c0,56.652,59.683,59.532,71.654,59.532c0.935,0,1.481-0.021,1.481-0.021
			c0.133,0,0.99,0.035,2.445,0.035c7.685,0,27.545-1.01,45.989-10.353c23.923-12.106,36.064-33.161,36.064-62.585
			c0-28.43-18.49-45.353-31.989-57.724c-8.24-7.533-15.358-14.038-15.358-20.365c0-6.447,5.199-11.293,11.772-17.432
			c10.649-9.926,20.682-24.052,20.682-50.758c0-23.478-2.922-39.234-20.918-49.233c1.877-1.001,8.506-1.729,11.791-2.203
			c9.754-1.39,24.02-2.964,24.02-11.265v-1.604h-71.072C179.186,68.933,108.03,71.681,108.03,139.611z M222.755,284.799
			c1.358,22.659-17.235,39.375-45.148,41.492c-28.358,2.162-51.703-11.146-53.058-33.775c-0.661-10.866,3.927-21.532,12.907-30.012
			c9.11-8.601,21.612-13.898,35.213-14.945c1.608-0.108,3.199-0.174,4.788-0.174C203.696,247.385,221.469,263.46,222.755,284.799z
			 M204.198,124.106c6.973,25.562-3.556,52.289-20.333,57.216c-1.926,0.566-3.924,0.855-5.94,0.855
			c-15.37,0-30.601-16.209-36.239-38.534c-3.153-12.546-2.9-23.505,0.716-34.047c3.555-10.371,9.936-17.376,17.972-19.731
			c1.932-0.57,3.932-0.86,5.946-0.86C184.879,89.002,196.81,97.025,204.198,124.106z M323.943,179.777v-48.326H294.58v48.326
			h-46.362v30.607h46.362v48.327h29.363v-48.327h46.362v-30.607H323.943z"/>
	</g>
	<path style="opacity:0.33;fill:#FFFFFF;stroke:#F6F6F6;stroke-width:2;stroke-miterlimit:10;" d="M205.153,216.713
		c113.245,1.233,206.196-90.751,209.33-206.202L0,5.995C0.817,121.489,91.907,215.478,205.153,216.713z"/>
</g>
</svg>
