<?xml version="1.0" encoding="utf-8"?>
<!-- Generator: Adobe Illustrator 15.0.0, SVG Export Plug-In . SVG Version: 6.00 Build 0)  -->
<!DOCTYPE svg PUBLIC "-//W3C//DTD SVG 1.1//EN" "http://www.w3.org/Graphics/SVG/1.1/DTD/svg11.dtd">
<svg version="1.1" id="Layer_1" xmlns="http://www.w3.org/2000/svg" xmlns:xlink="http://www.w3.org/1999/xlink" x="0px" y="0px"
	 width="864px" height="432px" viewBox="0 0 864 432" style="enable-background:new 0 0 864 432;" xml:space="preserve">
<g>
	<path style="fill:#010202;" d="M480.985,75.775v292.129h17.467v-64.406h24.76v64.406h9.819v-64.406h24.771v64.406h17.45V75.775
		H480.985z M519.086,263.771h-20.634c-2.859,0-5.179-1.705-5.179-3.807c0-2.091,2.319-3.787,5.179-3.787h20.634
		c2.856,0,5.157,1.696,5.157,3.787C524.243,262.066,521.942,263.771,519.086,263.771z M519.086,240.974h-20.634
		c-2.859,0-5.179-1.697-5.179-3.796c0-2.1,2.319-3.805,5.179-3.805h20.634c2.856,0,5.157,1.705,5.157,3.805
		C524.243,239.28,521.942,240.974,519.086,240.974z M519.086,218.197h-20.634c-2.859,0-5.179-1.7-5.179-3.806
		c0-2.102,2.319-3.8,5.179-3.8h20.634c2.856,0,5.157,1.698,5.157,3.8C524.243,216.498,521.942,218.197,519.086,218.197z
		 M519.086,195.398h-20.634c-2.859,0-5.179-1.698-5.179-3.795c0-2.101,2.319-3.794,5.179-3.794h20.634
		c2.856,0,5.157,1.698,5.157,3.794C524.243,193.7,521.942,195.398,519.086,195.398z M519.086,172.62h-20.634
		c-2.859,0-5.179-1.697-5.179-3.799s2.319-3.8,5.179-3.8h20.634c2.856,0,5.157,1.707,5.157,3.8
		C524.243,170.922,521.942,172.62,519.086,172.62z M519.086,149.827h-20.634c-2.859,0-5.179-1.697-5.179-3.8
		c0-2.097,2.319-3.799,5.179-3.799h20.634c2.856,0,5.157,1.702,5.157,3.799C524.243,148.13,521.942,149.827,519.086,149.827z
		 M519.086,127.041h-20.634c-2.859,0-5.179-1.705-5.179-3.796c0-2.106,2.319-3.798,5.179-3.798h20.634
		c2.856,0,5.157,1.702,5.157,3.798C524.243,125.336,521.942,127.041,519.086,127.041z M519.086,104.248h-20.634
		c-2.859,0-5.179-1.702-5.179-3.795c0-2.106,2.319-3.8,5.179-3.8h20.634c2.856,0,5.157,1.703,5.157,3.8
		C524.243,102.554,521.942,104.248,519.086,104.248z M557.802,263.771h-20.67c-2.835,0-5.149-1.705-5.149-3.807
		c0-2.091,2.314-3.787,5.149-3.787h20.67c2.828,0,5.144,1.696,5.144,3.787C562.945,262.066,560.63,263.771,557.802,263.771z
		 M557.802,240.974h-20.67c-2.835,0-5.149-1.697-5.149-3.796c0-2.1,2.314-3.805,5.149-3.805h20.67c2.828,0,5.144,1.705,5.144,3.805
		C562.945,239.28,560.63,240.974,557.802,240.974z M557.802,218.197h-20.67c-2.835,0-5.149-1.7-5.149-3.806
		c0-2.102,2.314-3.8,5.149-3.8h20.67c2.828,0,5.144,1.698,5.144,3.8C562.945,216.498,560.63,218.197,557.802,218.197z
		 M557.802,195.398h-20.67c-2.835,0-5.149-1.698-5.149-3.795c0-2.101,2.314-3.794,5.149-3.794h20.67
		c2.828,0,5.144,1.698,5.144,3.794C562.945,193.7,560.63,195.398,557.802,195.398z M557.802,172.62h-20.67
		c-2.835,0-5.149-1.697-5.149-3.799s2.314-3.8,5.149-3.8h20.67c2.828,0,5.144,1.707,5.144,3.8
		C562.945,170.922,560.63,172.62,557.802,172.62z M557.802,149.827h-20.67c-2.835,0-5.149-1.697-5.149-3.8
		c0-2.097,2.314-3.799,5.149-3.799h20.67c2.828,0,5.144,1.702,5.144,3.799C562.945,148.13,560.63,149.827,557.802,149.827z
		 M557.802,127.041h-20.67c-2.835,0-5.149-1.705-5.149-3.796c0-2.106,2.314-3.798,5.149-3.798h20.67
		c2.828,0,5.144,1.702,5.144,3.798C562.945,125.336,560.63,127.041,557.802,127.041z M557.802,104.248h-20.67
		c-2.835,0-5.149-1.702-5.149-3.795c0-2.106,2.314-3.8,5.149-3.8h20.67c2.828,0,5.144,1.703,5.144,3.8
		C562.945,102.554,560.63,104.248,557.802,104.248z"/>
	<g>
		<path d="M144.383,325.102c-2.69,9.488-5.868,16.556-9.535,21.2c-3.669,4.646-7.795,6.967-12.379,6.967
			c-5.075,0-10.195-2.788-15.361-8.368c-5.167-5.577-10.378-13.945-15.634-25.104L60.57,253.899l-11.188,5.08l-3.116,94.289
			L29.218,357.9L22.985,92.368l9.354-0.299l0.458,19.126l17.241,2.242l1.743-18.23l9.263,1.046l-1.193,19.725l12.749,5.081
			l5.594-19.127l7.978,6.127l-5.502,17.931c2.996,1.894,5.609,4.31,7.841,7.247c2.231,2.939,4.143,6.253,5.732,9.937l8.985-10.311
			l6.049,11.058l-11.642,12.552c0.978,3.687,1.62,7.871,1.926,12.552c0.305,4.684,0.243,9.813-0.184,15.391l13.198,7.621
			l-3.758,13.15l-11.182-6.725c-0.612,3.885-1.558,7.796-2.841,11.73c-1.283,3.936-2.873,7.795-4.766,11.581l8.891,12.851
			l-5.591,11.954l-9.99-12.253l-4.674,4.184l29.238,75.909c1.038,2.592,2.246,5.081,3.621,7.472c1.375,2.391,2.947,4.633,4.72,6.725
			c2.016,2.391,3.956,4.184,5.82,5.379c1.863,1.195,3.65,1.793,5.362,1.793c2.443,0,4.796-1.102,7.058-3.311
			c2.26-2.206,4.459-5.461,6.599-9.764L144.383,325.102z M79.308,216.393L68.38,136.748c-1.837-1.293-3.904-2.466-6.2-3.512
			c-2.295-1.046-4.851-1.917-7.666-2.615l-4.491,111.324c6.181-2.59,11.719-6.026,16.616-10.311
			C71.534,227.353,75.757,222.271,79.308,216.393z"/>
		<path d="M246.532,160.357l-14.665,6.874c-0.49-10.558-1.879-19.3-4.17-26.225c-2.291-6.923-5.515-12.078-9.669-15.466
			c-2.261-1.793-5.912-3.46-10.953-5.006c-5.041-1.543-11.443-2.813-19.202-3.811l-7.057,98.623l46.835-4.035l-11.731,42.886
			l-37.396-13l-8.249,99.817l34.371,0.747l12.007-28.55l19.156-1.784l0.458,47.668l-88.355-8.145l5.133-155.958l12.282,1.046
			l2.017-12.846l-14.115-0.299l0.733-18.076l13.382,1.644l1.375-15.984h-14.298l0.458-17.628l13.382,1.644l1.833-13.745
			l-14.756-1.193l0.917-27.188c6.049,0.798,12.128,1.569,18.239,2.316c6.109,0.747,12.22,1.419,18.331,2.017
			c7.271,1.396,13.748,3.414,19.431,6.052c5.683,2.641,10.541,5.954,14.573,9.937c5.316,5.181,9.608,11.756,12.877,19.725
			C242.972,140.386,245.249,149.699,246.532,160.357z M214.911,150.495l-2.75,39.599l-21.356-8.518l7.149-24.356L214.911,150.495z"
			/>
		<path d="M463.984,104.546l-17.048,41.317l-14.482-8.368l-37.028,206.584l-6.783,5.155l-38.087-154.658l-47.244,163.025
			l-3.758-29.138l-12.557,7.321l-1.925-13.448l13.107-6.873l-3.3-24.357l-12.557,6.426l-1.925-14.494l13.106-5.529l-3.299-27.645
			l-12.099,8.368l-3.758-14.494l14.023-9.115l-3.3-26.897l-15.673,6.126l-2.292-13.448l16.131-6.874l-3.3-28.69l-12.098,7.621
			l-2.383-12.403l12.648-7.322l-3.758-33.472l-11.64,6.276l-3.3-15.69l29.88-15.989l32.079,156.75l46.286-161.98l34.554,140.612
			l27.588-142.106L463.984,104.546z M396.113,257.187l-32.171-124.772l-6.141,19.575l33.179,134.634L396.113,257.187z"/>
	</g>
	<g>
		<path d="M732.413,121.311l-7.58,25.989l-19.259-1.048l-6.78,14.516l17.14,10.327l-10.313,20.201l-15.962-11.073l-9.417,19.453
			l13.844,11.075l-8.052,22.895l-16.176-13.018l-37.173,77.217l83.201-8.389l5.509,60.518l-124.777-4.793l91.252-199.378
			l-74.678-3.745l5.791-49.583L732.413,121.311z M635.699,173.365l-2.925,39.621l-22.172-8.389l7.17-24.358L635.699,173.365z
			 M648.554,319.641c0-3.395-0.518-5.967-1.554-7.715c-1.036-1.746-2.59-2.621-4.661-2.621c-2.072,0-3.626,0.875-4.662,2.621
			c-1.036,1.748-1.554,4.32-1.554,7.715c0,3.496,0.518,6.066,1.554,7.714c1.036,1.648,2.59,2.472,4.662,2.472
			c2.071,0,3.625-0.823,4.661-2.472C648.036,325.707,648.554,323.137,648.554,319.641z M677.182,319.94
			c0-3.596-0.801-6.666-2.401-9.213s-3.531-3.819-5.791-3.819c-2.198,0-4.144,1.272-5.839,3.819s-2.543,5.617-2.543,9.213
			c0,3.595,0.848,6.665,2.543,9.212s3.641,3.82,5.839,3.82c2.26,0,4.19-1.273,5.791-3.82S677.182,323.535,677.182,319.94z
			 M703.55,320.688c0-3.295-0.503-5.815-1.507-7.564c-1.005-1.746-2.575-2.621-4.708-2.621c-2.072,0-3.658,0.875-4.756,2.621
			c-1.1,1.749-1.648,4.27-1.648,7.564c0,3.396,0.549,5.894,1.648,7.49c1.098,1.599,2.684,2.396,4.756,2.396
			c2.133,0,3.703-0.798,4.708-2.396C703.047,326.582,703.55,324.085,703.55,320.688z"/>
		<path d="M847.02,159.883l-15.067,6.891c-0.503-10.584-1.931-19.347-4.285-26.289c-2.354-6.94-5.666-12.108-9.935-15.504
			c-2.323-1.798-6.074-3.469-11.254-5.018c-5.179-1.547-11.756-2.821-19.729-3.82l-7.251,98.865l48.121-4.044l-12.054,42.992
			l-38.422-13.032l-8.476,100.063l35.314,0.749l12.336-28.62l19.683-1.788l0.471,47.784l-90.781-8.164l5.273-156.342l12.619,1.048
			l2.071-12.877l-14.502-0.3l0.753-18.121l13.749,1.648l1.413-16.023h-14.691l0.472-17.671l13.749,1.648l1.883-13.779l-15.161-1.196
			l0.941-27.256c6.216,0.801,12.462,1.573,18.74,2.322c6.277,0.749,12.556,1.423,18.834,2.022
			c7.471,1.399,14.126,3.422,19.965,6.067c5.839,2.647,10.829,5.968,14.973,9.961c5.462,5.193,9.872,11.785,13.231,19.773
			C843.361,139.862,845.701,149.199,847.02,159.883z M814.53,149.997l-2.825,39.696l-21.941-8.538l7.345-24.417L814.53,149.997z"/>
	</g>
</g>
</svg>
