<?xml version="1.0" encoding="utf-8"?>
<!-- Generator: Adobe Illustrator 15.0.0, SVG Export Plug-In . SVG Version: 6.00 Build 0)  -->
<!DOCTYPE svg PUBLIC "-//W3C//DTD SVG 1.1//EN" "http://www.w3.org/Graphics/SVG/1.1/DTD/svg11.dtd">
<svg version="1.1" id="Layer_1" xmlns="http://www.w3.org/2000/svg" xmlns:xlink="http://www.w3.org/1999/xlink" x="0px" y="0px"
	 width="432px" height="432px" viewBox="0 0 432 432" style="enable-background:new 0 0 432 432;" xml:space="preserve">
<g>
	<path style="fill:#00A19A;stroke:#00A19A;stroke-miterlimit:10;" d="M434.419,410.129c0.048,10.281-8.3,18.657-18.641,18.705
		l-396.361,1.832c-10.343,0.048-18.765-8.252-18.812-18.534L-1.216,17.99C-1.263,7.706,7.082-0.671,17.424-0.718L413.786-2.55
		c10.34-0.047,18.766,8.252,18.813,18.536L434.419,410.129L434.419,410.129z"/>
	<path style="opacity:0.45;fill:none;stroke:#F6F6F6;stroke-width:7;stroke-miterlimit:10;enable-background:new    ;" d="
		M23.498,39.995c-0.048-10.25,8.179-18.598,18.375-18.645l341.5-1.578c10.197-0.047,18.498,8.225,18.546,18.474l1.585,343.336
		c0.049,10.247-8.177,18.596-18.373,18.644L43.63,401.805c-10.196,0.045-18.499-8.226-18.546-18.474L23.498,39.995z"/>
	<path style="opacity:0.33;fill:#FFFFFF;stroke:#F6F6F6;stroke-width:2;stroke-miterlimit:10;enable-background:new    ;" d="
		M211.301,212.319c119.776,0.703,217.649-93.58,220.418-211.362L-6.663-1.625C-5.255,116.183,91.526,211.611,211.301,212.319z"/>
	<path style="fill:#FFFFFF;" d="M388.801,127.197c-11.73,5.201-24.336,8.718-37.566,10.299c13.503-8.094,23.876-20.913,28.76-36.187
		c-12.64,7.497-26.637,12.939-41.537,15.872c-11.931-12.711-28.929-20.654-47.742-20.654c-36.123,0-65.408,29.283-65.408,65.406
		c0,5.126,0.58,10.118,1.694,14.907c-54.359-2.729-102.556-28.769-134.814-68.341c-5.631,9.66-8.857,20.895-8.857,32.882
		c0,22.693,11.547,42.714,29.097,54.442c-10.722-0.339-20.807-3.281-29.624-8.18c-0.008,0.273-0.008,0.546-0.008,0.823
		c0,31.69,22.546,58.125,52.468,64.136c-5.488,1.492-11.267,2.294-17.233,2.294c-4.215,0-8.312-0.411-12.306-1.175
		c8.323,25.984,32.478,44.897,61.101,45.424c-22.385,17.544-50.588,28-81.233,28c-5.279,0-10.487-0.31-15.603-0.918
		c28.945,18.562,63.326,29.39,100.264,29.39c120.307,0,186.095-99.666,186.095-186.101c0-2.835-0.064-5.655-0.188-8.461
		C368.942,151.833,380.031,140.312,388.801,127.197z"/>
</g>
</svg>
