<?xml version="1.0" encoding="utf-8"?>
<!-- Garden Gnome Software - Skin Buttons -->
<!DOCTYPE svg PUBLIC "-//W3C//DTD SVG 1.1 Basic//EN" "http://www.w3.org/Graphics/SVG/1.1/DTD/svg11-basic.dtd">
<svg version="1.1" baseProfile="basic" id="Layer_1" xmlns="http://www.w3.org/2000/svg" xmlns:xlink="http://www.w3.org/1999/xlink"
			x="0px" y="0px" width="32px" height="32px" viewBox="0 0 32 32" xml:space="preserve">
	<g opacity="0.4" stroke="#3C3C3C" stroke-width="1.5">
		<path d="M16.874,8.135c-0.225-0.24-0.532-0.376-0.861-0.379c-0.328-0.004-0.639,0.125-0.868,0.36l-5.761,5.895
			c-0.217,0.222-0.341,0.525-0.341,0.836v5.905c0,0.315,0.128,0.623,0.351,0.846s0.531,0.351,0.846,0.351h11.522
			c0.314,0,0.623-0.128,0.846-0.351s0.351-0.53,0.351-0.846v-5.639c0-0.306-0.114-0.594-0.322-0.817L16.874,8.135z M20.565,19.556
			H15.95c0.009-0.059,0.018-0.116,0.018-0.177v-2.31c0-0.66-0.536-1.196-1.196-1.196c-0.66,0-1.196,0.536-1.196,1.196v2.31
			c0,0.061,0.009,0.118,0.018,0.177h-2.158v-4.222l4.546-4.651l4.584,4.901V19.556z M16,3.5C9.096,3.5,3.5,9.096,3.5,16
			c0,6.904,5.596,12.499,12.5,12.5c6.903-0.001,12.499-5.596,12.5-12.5C28.499,9.096,22.903,3.5,16,3.5z M23.147,23.147
			c-1.833,1.83-4.353,2.959-7.147,2.96c-2.795-0.001-5.314-1.13-7.146-2.96C7.022,21.314,5.894,18.795,5.893,16
			c0.001-2.795,1.129-5.314,2.961-7.147c1.833-1.831,4.352-2.96,7.146-2.96c2.795,0,5.313,1.129,7.147,2.96
			c1.831,1.833,2.959,4.352,2.96,7.147C26.106,18.795,24.979,21.314,23.147,23.147z"/>
	</g>
	<g fill="#FFFFFF" stroke="#000000" stroke-width="0.2">
		<path d="M16.874,8.135c-0.225-0.24-0.532-0.376-0.861-0.379c-0.328-0.004-0.639,0.125-0.868,0.36l-5.761,5.895
			c-0.217,0.222-0.341,0.525-0.341,0.836v5.905c0,0.315,0.128,0.623,0.351,0.846s0.531,0.351,0.846,0.351h11.522
			c0.314,0,0.623-0.128,0.846-0.351s0.351-0.53,0.351-0.846v-5.639c0-0.306-0.114-0.594-0.322-0.817L16.874,8.135z M20.565,19.556
			H15.95c0.009-0.059,0.018-0.116,0.018-0.177v-2.31c0-0.66-0.536-1.196-1.196-1.196c-0.66,0-1.196,0.536-1.196,1.196v2.31
			c0,0.061,0.009,0.118,0.018,0.177h-2.158v-4.222l4.546-4.651l4.584,4.901V19.556z M16,3.5C9.096,3.5,3.5,9.096,3.5,16
			c0,6.904,5.596,12.499,12.5,12.5c6.903-0.001,12.499-5.596,12.5-12.5C28.499,9.096,22.903,3.5,16,3.5z M23.147,23.147
			c-1.833,1.83-4.353,2.959-7.147,2.96c-2.795-0.001-5.314-1.13-7.146-2.96C7.022,21.314,5.894,18.795,5.893,16
			c0.001-2.795,1.129-5.314,2.961-7.147c1.833-1.831,4.352-2.96,7.146-2.96c2.795,0,5.313,1.129,7.147,2.96
			c1.831,1.833,2.959,4.352,2.96,7.147C26.106,18.795,24.979,21.314,23.147,23.147z"/>
	</g>
</svg>